<svg id="logo" width="35vw" height="100%" viewBox="0 0 88 88" fill="none" xmlns="http://www.w3.org/2000/svg"><path fill-rule="evenodd" clip-rule="evenodd" d="M44.0003 244141e-9C68.2967 244141e-9 88 19.7035 88 44c0 24.2964-19.7033 43.9998-43.9997 43.9998C19.7038 87.9998.0 68.2964.0 44 0 19.7035 19.7038 244141e-9 44.0003 244141e-9z" fill="#fefefe"/><path fill-rule="evenodd" clip-rule="evenodd" d="M47.4332 11.1379C47.1213 11.0913 47.0402 10.9913 46.869 10.9241 46.636 10.8347 46.4263 10.5976 46.3872 10.4827 46.3689 10.4278 46.3719 10.3647 46.3858 10.3246 46.7652 9.25794 47.3769 9.37178 48.3589 9.1926 48.5117 9.16517 48.6448 9.21884 48.9303 9.20572 49.1707 9.19446 49.4041 9.30075 49.6584 9.30379 49.8544 9.30605 50.0502 9.28272 50.2463 9.22043 50.3792 9.17723 50.4927 9.09943 50.584 9.00666 50.6558 8.93337 50.7167 8.83675 50.7456 8.7343 50.7922 8.5705 50.818 8.39423 50.7914 8.22591 50.7414 7.91446 50.5348 7.67365 50.4638 7.55238 50.4128 7.46478 50.3601 7.37055 50.3552 7.27619 50.3229 6.6733 50.9143 6.50154 51.0646 6.08114 51.0889 6.01315 50.9206 6.12064 50.8575 6.11693 50.3203 6.0879 49.7065 6.18227 49.2071 6.21646 48.9258 6.23594 48.5727 6.10102 48.4622 5.9718 48.1507 5.60747 48.2871 5.41172 48.4742 5.15739 48.8236 4.68479 49.2218 4.68359 49.7819 4.64012 49.966 4.62621 50.1433 4.72534 50.3264 4.72044 50.5104 4.71593 50.6835 4.6107 50.8752 4.61521 51.0728 4.62011 51.3789 4.64489 51.6871 4.64198 51.8564 4.64118 52.0305 4.66676 52.1878 4.72905 52.6112 4.89776 52.902 4.86847 53.0965 5.51762 53.1653 5.74796 53.0019 6.21606 52.6499 6.27159 52.2438 6.33481 51.9883 6.22613 51.6979 6.3918 51.5972 6.44932 51.503 6.55945 51.5627 6.75547 51.7329 7.30587 52.0927 8.05693 51.7825 8.78533 51.728 8.91349 51.6439 9.04416 51.5454 9.15947 51.2284 9.53215 50.7343 9.73731 50.3278 9.73585 49.8763 9.7336 49.4416 9.53824 49.0046 9.51982 48.8912 9.51492 48.7977 9.63698 48.6827 9.63592 48.4437 9.63473 48.1316 9.55216 48.2635 9.66296 48.5002 9.86281 48.6839 9.80159 49.0869 9.94962 49.5904 10.1344 50.1362 10.1882 50.6697 10.2396 51.0721 10.2787 51.3019 10.1694 51.7227 10.2798 52.2967 10.4301 52.9185 10.0942 53.476 10.4988 53.6387 10.6182 53.4809 11.0537 53.254 11.2772 52.7134 11.8088 51.5841 11.5639 50.9785 11.5113 50.7632 11.4924 50.5588 11.5598 50.3594 11.5327 49.3668 11.3952 48.3153 11.2694 47.4332 11.1379z" fill="#0068ab"/><path fill-rule="evenodd" clip-rule="evenodd" d="M21.9202 22.7402C21.6348 22.9273 21.4425 22.9228 21.3068 22.8206 21.0018 22.5907 20.8071 22.2184 20.4686 22.0737 20.0937 21.9137 20.0095 22.1623 19.8506 22.3923 19.7552 22.5309 19.6129 22.6339 19.4832 22.7146 19.1587 22.9171 18.9596 22.8694 18.8773 22.594 18.7297 22.1052 18.8908 21.9641 19.1767 21.5177 19.2135 21.4598 19.2672 21.4084 19.2736 21.3299 19.2793 21.2607 19.2492 21.18 19.2 21.124 19.0143 20.9128 18.9344 21.2074 18.9107 21.2408 18.7999 21.3986 18.6439 21.5253 18.5602 21.6991 18.1823 22.4779 17.7007 23.1354 17.1097 23.6805 17.0549 23.7313 16.9515 23.6862 16.9015 23.6471 16.5214 23.3469 16.3015 23.1241 16.4627 22.6587 16.6171 22.2127 17.1511 21.816 17.5395 21.3738 17.5395 21.3738 17.5744 21.3899 17.5748 21.3715 17.5793 21.1342 18.1031 20.7328 18.2194 20.3857 18.2518 20.2899 18.304 20.1646 18.2559 20.0728 18.1191 19.8083 17.7532 19.2741 17.5011 19.1941 17.4474 19.1764 17.3809 19.2218 17.3528 19.2662 17.2386 19.4436 17.1601 19.6524 17.1345 19.7925 17.0436 19.9895 17.2615 20.1062 17.3645 20.3028 17.4384 20.4441 17.5234 20.5725 17.4941 20.7097 17.4118 21.092 17.148 21.3592 16.8903 21.3306 16.8538 21.3269 16.8084 21.3186 16.775 21.3348 16.6273 21.4298 16.4139 21.7258 16.2426 21.7303 15.9499 21.8212 15.8207 21.7352 15.7621 21.6213 15.5461 21.2029 15.6333 21.0477 15.8869 20.6281 15.9729 20.4853 16.0623 20.3249 16.0585 20.1619 16.054 19.994 15.9489 19.8398 15.8549 19.7167 15.7693 19.6043 15.6532 19.4943 15.5285 19.4706 15.3696 19.4409 15.2046 19.5953 15.0671 19.5521 14.4566 19.3572 14.6824 18.8868 14.9984 18.4514 15.0149 18.4281 15.028 18.3823 15.0029 18.3687 14.8222 18.2721 14.6122 18.2827 14.554 18.3398 14.167 18.7113 14.0636 19.101 13.6354 18.9026 13.4509 18.8113 13.3334 18.6835 13.266 18.5424 13.1534 18.3071 13.3348 18.1279 13.2721 17.8277 13.2988 17.6046 13.6049 17.5437 13.3889 17.1729 13.2416 16.7412 13.0252 16.603 13.2109 16.1973 13.3923 15.8005 13.5062 15.7581 14.0249 16.0233 14.3289 16.2097 14.0501 16.3994 14.4772 16.6091 14.8247 16.8025 14.974 17.0527 15.1058 17.4475 15.1253 17.4784 15.2609 17.5701 15.2742 17.5955 15.3117 17.6674 15.338 17.8161 15.4097 17.7886 15.6513 17.6971 16.065 17.3221 16.0466 16.9855 16.0308 16.689 15.6506 16.4998 15.6084 16.3262 15.5559 16.1136 15.516 15.5685 15.4484 15.3666c-.1386-.4087-.2652-.9031-.4023-1.3009C14.9893 13.9027 14.9304 13.7069 14.9996 13.539 15.0927 13.3136 15.1487 13.1397 15.5105 13.2087 15.746 13.2538 15.8643 13.5503 16.0904 13.6686 16.2761 13.7667 16.5665 13.5044 16.8726 13.8982 17.2197 14.3456 16.7272 14.8655 16.5432 15.2405 16.3797 15.5726 16.4444 15.9844 16.3767 16.3006 16.3726 16.3175 16.3842 16.3739 16.4068 16.3626 16.4969 16.3137 16.5823 16.2488 16.6646 16.1646 16.906 15.9189 17.0913 15.5685 17.4621 15.3527 17.5872 15.2799 17.6642 15.2837 17.7912 15.4801 17.9573 15.7364 17.6458 16.5193 17.4843 16.7394 17.3655 16.9005 17.251 16.9847 17.2017 17.1072 17.1724 17.1809 17.0747 17.2477 17.1976 17.3942 17.3667 17.6181 17.3667 17.6959 17.5324 17.605 17.559 17.5978 17.6037 17.5625 17.627 17.546 17.7458 17.46 17.8645 17.3138 17.919 17.1707 17.9542 17.0787 18.0068 17.0162 17.9962 16.9089 17.9753 16.6962 17.8119 16.4396 17.9479 16.2109 18.0302 16.0079 18.3596 15.7374 18.7139 15.9524 18.7916 15.9797 18.9043 15.9471 18.999 15.9685 19.1372 15.9997 19.2867 16.0557 19.4261 16.2266 19.5269 16.3505 19.5148 16.5407 19.6027 16.6827 19.6639 16.7807 19.7984 16.8254 19.8402 16.9337 19.8995 17.0854 19.8093 17.5201 19.895 17.632 19.9104 17.6519 19.8451 17.7552 19.883 17.7162 19.818 17.8011 19.8924 17.8541 19.937 17.8812 19.9616 17.8953 20.0392 17.8269 20.066 17.7966 20.312 17.5099 20.3455 17.5787 20.4131 17.4423 20.5167 17.2339 20.6269 17.203 20.6918 17.0918 20.6795 17.0365 20.9349 16.757 21.1212 16.6139 21.3278 16.4441 21.9222 16.6677 21.8643 17.1012 21.8336 17.4059 21.4988 17.5531 21.4034 17.7049 21.3229 17.8319 21.3718 17.9025 21.2602 18.0472 21.1261 18.2512 20.9469 18.4108 20.8079 18.5946 20.7004 18.6697 20.6959 18.8162 20.6005 18.903 20.3533 19.2298 20.1741 19.4845 20.1242 19.7479 20.1268 19.7866 20.2511 19.8992 20.2958 19.8744 20.554 19.729 20.6836 19.3688 21.034 19.1295 21.0747 18.9296 21.6686 18.895 21.7779 19.3057 21.7832 19.498 21.8045 19.6035 21.7392 19.6844 21.61 19.8437 21.566 20.0398 21.4785 20.1709 21.3233 20.4031 21.0663 20.5616 21.0258 20.7945 20.9717 20.9324 21.0127 20.9509 21.054 21.0609 21.0803 21.1311 21.1562 21.204 21.2035 21.2837 21.2936 21.4354 21.4484 21.5752 21.5435 21.739 21.6757 21.9678 21.8842 22.1564 21.9692 22.4908 21.9902 22.5745 22.0236 22.707 21.9202 22.7402zm-2.8303-3.9654C18.7371 18.868 18.6779 18.6065 18.5268 18.4687 18.3844 18.1486 18.3693 18.2039 18.6222 17.916 18.6914 17.8751 18.7706 17.8431 18.8495 17.8116 19.179 17.9385 19.2424 18.2917 19.1872 18.5866 19.1458 18.6536 19.1128 18.7091 19.0899 18.7748zM16.8376 19.1768C16.7506 19.2275 16.7223 19.2918 16.6648 19.3 16.4666 19.3283 16.3377 19.2441 16.2155 19.0938 16.2223 19.0674 16.2096 19.0273 16.2219 19.0021 16.2735 18.8985 16.3527 18.7869 16.432 18.6347 16.5315 18.327 16.5153 18.1906 16.8786 18.4537 16.9361 18.5231 17.0443 18.5784 17.068 18.6433 17.0966 18.7207 17.0883 18.7985 17.0717 18.8714 16.9873 18.9675 16.9125 19.0724 16.8376 19.1768z" fill="#0068ab"/><path fill-rule="evenodd" clip-rule="evenodd" d="M62.9917 17.2086C62.8527 17.1361 62.6776 17.0944 62.5991 16.9746 62.3125 16.5387 62.0041 16.2837 61.8155 16.0237 61.5747 15.6923 61.3252 15.216 61.2958 14.9597 61.2579 14.6295 61.1002 14.5589 61.0122 14.4594 60.9754 14.418 60.954 14.3504 60.9743 14.3072 61.2403 13.7411 61.2816 13.5419 61.8823 13.6336 61.9736 13.6479 62.0829 13.7122 62.1302 13.806 62.2711 14.0859 62.5134 14.6686 62.74 15.0931 63.0421 15.6604 63.7182 16.0714 64.3133 16.5872 64.4384 16.6957 64.5951 16.7923 64.6635 16.9599 64.6977 17.0459 64.6203 17.1552 64.5715 17.2506 64.5492 17.292 64.5 17.3311 64.4419 17.3299 64.2236 17.327 64.0129 17.227 63.7903 17.2266 63.6127 17.2266 63.4432 17.3243 63.2585 17.3176 63.1543 17.3133 63.0736 17.251 62.9917 17.2086zm-6.9145-3.7133C55.7248 13.0862 56.4845 12.992 56.7403 12.8409 56.8091 12.8011 56.8103 12.6974 56.8715 12.6738 57.3177 12.4983 57.9591 12.5628 58.4216 12.3769 58.5402 12.3296 58.6143 12.2966 58.7439 12.2657 59.2379 12.1492 59.7755 11.9307 60.1996 11.6421 60.2778 11.5879 60.3401 11.4437 60.2801 11.3746 60.1343 11.2078 59.8548 11.2154 59.7015 11.0737 59.6203 10.9994 59.6068 10.9452 59.6113 10.8802 59.6324 10.6026 59.6421 10.4156 59.7326 10.2231 60.0539 9.53859 60.8338 10.1574 61.4041 10.3429 61.5442 10.3884 61.6044 10.399 61.7313 10.3069 61.9845 10.124 62.1073 9.98416 62.299 9.80882 62.4151 9.70213 62.584 9.65177 62.6878 9.54058 62.8861 9.33012 63.0112 9.18367 63.1916 9.05326 63.3906 8.90867 63.613 8.80039 63.8208 8.68999 63.8378 8.68177 63.8708 8.73014 63.8855 8.70841 64.0154 8.51345 64.3604 8.622 64.5455 8.59682 64.7466 8.56859 64.9268 8.47396 65.1105 8.64042 65.357 8.8636 65.2405 9.25086 65.0429 9.59015 64.9603 9.73248 64.834 9.85945 64.6985 9.96919 64.5752 10.0691 64.4396 10.1435 64.292 10.2137 63.9091 10.3978 63.5202 10.3986 63.2284 10.7623 63.1078 10.9122 63.4899 11.076 63.7588 11.1267 63.9516 11.1628 64.1661 11.1263 64.3524 11.2292 64.6293 11.3825 64.8367 11.8908 64.4824 12.2225 64.2934 12.399 64.18 12.3454 64.009 12.2853 63.3054 12.038 62.6266 11.7585 61.9789 11.9788 61.8069 12.0377 61.7455 12.2581 61.5878 12.3634 61.3793 12.502 61.1459 12.5528 60.9296 12.6677 60.6526 12.8153 60.3469 12.9296 60.0381 13.0268 59.6068 13.1628 59.2022 13.3319 58.7784 13.3864 58.6338 13.4044 58.4718 13.3229 58.3528 13.3852 57.9914 13.5746 57.2645 13.5385 56.7565 13.6573 56.5221 13.7118 56.2275 13.67 56.0772 13.4953z" fill="#0068ab"/><path fill-rule="evenodd" clip-rule="evenodd" d="M40.612 12.5073C40.4708 12.5351 40.3224 12.5077 40.1991 12.4764 40.0662 12.4438 39.9434 12.3875 39.8577 12.3062 39.5234 11.988 39.6428 11.7165 39.6387 11.3411 39.6356 11.0241 39.3983 10.9883 39.2678 10.9523 39.249 10.9474 39.2592 10.9181 39.2465 10.9144 38.6732 10.751 38.4418 10.4553 38.5176 10.0638 38.6656 9.30466 39.2674 9.35688 39.985 9.05921 40.1162 9.00514 40.2536 8.92482 40.3416 8.80647 40.3828 8.7516 40.3728 8.62981 40.3179 8.61483 39.9696 8.51981 39.8043 8.70204 39.5744 8.60807 39.3708 8.52577 39.3528 8.2782 39.275 8.13056 39.2543 8.09146 39.2283 8.00479 39.1946 7.98477 39.181 7.97656 39.18 7.98411 39.1698 7.98901 39.1616 7.99272 39.1466 8.02347 39.1413 8.03407 39.1116 8.09186 39.0698 8.25076 39.0041 8.27303 38.574 8.41842 38.3373 7.95933 38.2043 7.77365 38.063 7.57459 37.9548 7.3522 37.8662 7.1257 37.7257 6.76534 37.6172 6.39121 37.5367 6.02794 37.4859 5.79905 37.4714 5.5756 37.4736 5.35428 37.4744 5.23712 37.5551 5.14169 37.5492 5.0305 37.5052 4.1758 37.693 4.11682 38.589 4.0552 38.6754 4.04844 38.7614 4.09429 38.861 4.08528 39.0387 4.06765 39.5105 3.95792 39.799 3.94135 40.1304 3.92227 40.4344 3.68252 40.7778 3.64951 40.9986 3.62804 41.3465 3.44886 41.7128 3.63255 41.8285 3.69047 41.9765 3.68397 42.0896 3.76773 42.2978 3.92293 42.4063 4.41131 42.3435 4.83886 42.3075 5.08338 42.4792 5.38516 42.4522 5.74087 42.4397 5.90574 42.5227 6.09738 42.454 6.31566 42.4281 6.39797 42.4743 6.49524 42.4375 6.5847 42.3181 6.87323 42.1764 7.02948 42.064 7.31721 42.0189 7.43185 41.8379 7.45544 41.7777 7.56928 41.662 7.79022 41.5129 7.82852 41.4141 7.89836 41.3094 7.97324 41.1876 7.97801 41.2361 8.31425 41.2461 8.39814 41.2687 8.48415 41.283 8.53823 41.2961 8.587 41.3326 8.73689 41.3823 8.77413 41.5265 8.88228 41.8702 8.82224 42.0415 9.18472 42.1407 9.39584 42.123 9.7949 42.0775 10.0736 42.0276 10.3768 41.5801 10.441 41.9792 10.7799 42.1193 10.899 42.2399 10.917 42.2391 11.2465 42.2391 11.3633 42.182 11.4591 42.1117 11.6639 42.0795 11.7578 42.0175 11.8461 41.9337 11.8953 41.6429 12.0648 41.3671 12.1737 41.224 12.274 41.0426 12.401 40.8187 12.4663 40.612 12.5073zM36.1719 12.0832C36.0062 12.0798 36.0013 12.0945 35.8785 12.0855 35.1726 12.0332 34.8073 11.6714 34.8645 11.0673 34.8847 10.854 34.9625 10.5706 35.0114 10.3941 35.0549 10.2344 35.2056 10.1213 35.2627 9.96573 35.2819 9.91391 35.2586 9.8658 35.2361 9.83134 35.215 9.79821 35.1722 9.78695 35.1425 9.77979 34.981 9.74082 34.7916 9.78098 34.6763 9.68967 34.4731 9.53036 34.4692 9.4136 34.4103 9.33687 33.9952 8.80157 33.9366 8.62305 34.0546 8.03407 34.1281 7.66405 34.4772 7.64788 34.7401 7.39381 35.0193 7.12411 35.5295 7.18242 35.6974 6.85441 35.729 6.79318 35.7003 6.72744 35.6764 6.67628 35.6467 6.61466 35.6023 6.54481 35.5523 6.5464 35.333 6.55343 35.1323 6.71127 34.9107 6.70186 34.7195 6.69365 34.5278 6.69099 34.3505 6.63016 33.8457 6.4584 33.7931 6.32918 33.7837 5.95796 33.772 5.51093 33.8498 5.53611 34.2345 5.40649 35.0805 5.12181 35.9874 4.96887 36.8898 4.88167 37.007 4.87 37.0543 4.99511 37.1558 5.23486 37.2144 5.37455 37.3113 5.68335 37.1542 5.86558 36.7725 6.30851 36.8061 6.14549 36.9695 6.84089 36.9859 6.91299 37.1306 7.01742 37.1813 7.27559 37.2429 7.58625 37.3467 7.90062 37.3139 8.22943 37.2974 8.40291 37.273 8.56381 37.1648 8.74895 37.0262 8.98645 36.788 9.1378 36.6411 9.35714 36.569 9.46502 36.4676 9.67018 36.3755 9.78774 36.2985 9.88807 36.2313 9.99621 36.2162 10.1134 36.1865 10.3486 36.0738 10.9681 36.5927 10.6695 36.7696 10.5673 36.8026 10.3189 36.9089 10.1446 36.9187 10.1281 36.974 10.1446 36.9736 10.118 36.9717 9.96613 37.1036 9.7505 37.2572 9.78178 37.2877 9.78695 37.3229 9.81358 37.3406 9.84857 37.3718 9.9106 37.4218 9.99515 37.3999 10.0759 37.335 10.3114 37.3583 10.7228 37.2869 10.994 37.2103 11.2867 36.7238 11.5779 36.5528 11.8119 36.4506 11.9513 36.2688 12.0857 36.1719 12.0832zm3.8241-1.4145C39.5969 10.6589 39.2389 10.5958 39.3283 10.2675 39.429 9.89933 39.6653 9.97859 40.0302 9.84897 40.1117 9.81928 40.3201 9.58258 40.5339 9.70729 40.5978 9.74453 40.6556 9.8275 40.674 9.91802 40.6969 10.0327 40.7446 10.2036 40.6484 10.287 40.426 10.4782 40.26 10.6746 39.996 10.6687zM35.44 9.02025C35.0614 8.96909 34.9572 8.80753 35.0876 8.5157 35.2236 8.21432 35.3747 8.16515 35.7034 8.01605 35.8154 7.96529 35.8592 7.77816 36.0971 7.81169 36.1549 7.81951 36.2583 8.03633 36.1963 8.24069 36.1275 8.46414 36.04 8.68812 35.8826 8.84928 35.765 8.96803 35.5918 9.04119 35.44 9.02025zM39.2336 7.7714C39.2089 7.7763 39.2074 7.76649 39.1732 7.7482 39.1566 7.73919 39.1417 7.70566 39.1323 7.69559 39.13 7.69333 39.1278 7.69068 39.1262 7.68843 38.9459 7.43781 38.7629 7.18534 38.6646 6.91153 38.5432 6.57529 38.4842 6.21613 38.4586 5.87314 38.4496 5.75108 38.4719 5.59893 38.5589 5.5316 38.8065 5.3397 39.2101 5.1128 39.6567 5.13268 39.7912 5.13825 39.8322 5.28324 39.8254 5.42081 39.8235 5.47077 39.7742 5.52034 39.7259 5.55268 39.3493 5.80329 38.9328 5.90654 39.0508 6.3867 39.0778 6.4967 39.2498 6.95354 39.618 6.70862 39.6751 6.67032 39.7713 6.64925 39.8506 6.67708 39.9734 6.73751 39.9817 6.93406 39.9528 7.04631 39.9212 7.16957 39.8054 7.25333 39.7525 7.3127 39.633 7.44577 39.4509 7.51667 39.3122 7.63807 39.2633 7.67756 39.2719 7.76424 39.2336 7.7714zm1.8198-.74417C40.9776 7.05082 40.9013 7.0377 40.8788 6.96679 40.8548 6.89046 40.8382 6.8495 40.8292 6.77475 40.8202 6.69961 40.8003 6.56668 40.8093 6.5073 40.8405 6.3036 40.8446 6.194 40.7758 5.99666 40.7364 5.88321 40.6613 5.72881 40.5302 5.54552 40.4449 5.42611 40.3728 5.36223 40.3126 5.20173 40.2563 5.05223 40.2139 4.94104 40.2548 4.90155 40.4934 4.6728 41.1255 4.48805 41.4787 4.78558 41.6366 4.91851 41.6745 5.18039 41.6391 5.38396 41.6031 5.59442 41.6948 5.92681 41.6835 6.24396 41.6767 6.41599 41.6696 6.60538 41.5588 6.74507 41.4337 6.90093 41.2365 6.96905 41.0534 7.02723z" fill="#0068ab"/><path fill-rule="evenodd" clip-rule="evenodd" d="M29.7659 16.643C29.6784 16.6524 29.5728 16.641 29.5079 16.6084 29.3426 16.5253 29.2449 16.3416 29.184 16.2428 28.8635 15.7203 28.6407 15.1981 28.3542 14.7912 28.3136 14.7333 28.217 14.7439 28.2094 14.7532c-.1388.1676-.2727.3329-.366899999999998.5358C27.7376 15.5132 27.6572 15.7991 27.5824 16.0598 27.5269 16.2548 27.4108 16.3664 27.3777 16.5602 27.3387 16.7845 27.3289 17.0415 27.2034 17.2132 27.1151 17.3338 27.0486 17.495 26.9157 17.5411 26.8657 17.5591 26.7965 17.59 26.7613 17.5889 26.6214 17.5837 26.5782 17.4356 26.5733 17.2816 26.5144 16.5381 26.7289 15.8935 26.9265 15.2003 26.9841 15.0019 26.9957 14.8115 27.0711 14.6311 27.1526 14.4335 27.2865 13.8624 27.1741 13.7013 27.1479 13.663 27.0836 13.6623 27.0621 13.6273 26.8518 13.2674 27.034 13.2554 27.0617 12.8973 27.0813 12.6358 27.0076 12.5777 26.8706 12.4976 26.446 12.2492 26.4776 11.767 26.4431 11.4588 26.4359 11.3943 26.3983 11.3372 26.3503 11.3161 26.301 11.294 26.2405 11.3285 26.215 11.3556 26.0632 11.5182 25.7769 11.6865 25.6654 11.9228 25.6211 12.0168 25.5666 12.0555 25.5523 12.1182 25.5384 12.1771 25.5218 12.2564 25.5482 12.3219 25.5699 12.4075 25.6281 12.445 25.6758 12.5066 25.7819 12.6309 26.1136 12.9045 26.2823 13.2012 26.3536 13.3267 26.4142 13.4117 26.3833 13.5409 26.3735 13.613 26.3532 13.7299 26.3036 13.7795 26.1981 13.8857 26.0745 14.0184 25.9209 14.0184 25.7473 14.018 25.6078 13.8509 25.446 13.778 25.3787 13.7483 25.3141 13.7565 25.272 13.7209 24.9884 13.4789 24.792 13.2933 24.6413 13.0927 24.5782 13.0081 24.553 12.8969 24.4861 12.8346 24.261 12.6295 23.9635 11.9589 23.8745 11.7147 23.8306 11.6107 23.8468 11.4543 23.8433 11.3965 23.7855 11.0509 23.9676 10.7849 23.9786 10.4427 23.9748 10.4114 23.9275 10.3289 23.8568 10.3487 23.6983 10.3927 23.4977 10.4167 23.453 10.3807 23.2591 10.2277 23.1352 10.259 23.1258 9.91893 23.1209 9.74319 23.2539 9.52743 23.3779 9.30849 23.5435 9.01771 23.8091 8.97597 24.1472 8.78591 24.3558 8.66836 24.5846 8.5781 24.758 8.41628 24.8115 8.36698 24.8047 8.26334 24.7867 8.1825 24.7367 7.95335 24.7461 7.88986 24.692 7.74938 24.5375 7.34966 24.5135 7.09944 24.9118 6.97924 25.0308 6.94319 25.1878 7.00588 25.3002 7.08858 25.4002 7.16253 25.4565 7.19116 25.5102 7.26246 25.5685 7.33986 25.5937 7.39512 25.6887 7.43117 25.76 7.45861 25.899 7.40718 26.0335 7.34025 26.0892 7.31242 26.2635 7.24563 26.3442 7.14411 26.431 7.01529 26.5891 6.95591 26.7496 6.92066 26.8551 6.89693 26.9859 6.91615 27.1002 6.96121 27.2845 7.03371 27.6711 7.22575 27.5261 7.60625 27.4416 7.82718 27.3371 8.04877 27.1786 8.2212 27.0261 8.38726 26.9296 8.44888 26.8391 8.5406 26.7519 8.62926 26.5952 8.64238 26.5234 8.74536 26.4427 8.85947 26.3698 8.9211 26.4138 9.06317 26.4535 9.19199 26.5279 9.26568 26.6575 9.36521 26.7072 9.39781 26.7617 9.35925 26.8055 9.32386 26.8383 9.29789 26.9919 9.17622 26.9994 9.16721 27.1862 9.01546 27.3616 8.95078 27.4956 8.85881 27.7034 8.71673 27.6944 8.68029 27.9078 8.59613 28.019 8.55226 28.0945 8.55186 28.2 8.54881 28.4871 8.5398 28.6708 8.48679 28.989 8.73635c.1601.12471.298299999999998.29528.3855.47672C29.5038 9.48052 29.5702 9.80469 29.6244 10.1022 29.6566 10.2773 29.6404 10.4675 29.6401 10.6493 29.6389 10.907 29.5898 11.0828 29.5146 11.3038 29.4876 11.3826 29.4462 11.5122 29.4177 11.5923 29.3993 11.6449 29.3057 11.7864 29.2855 11.8383 29.2621 11.8958 29.2865 11.9742 29.2227 12.105 29.1724 12.2083 29.1333 12.2253 29.0461 12.3248 28.8981 12.4939 28.6862 12.6231 28.6081 12.7366 28.518 12.867 28.5825 12.8899 28.6783 13.0124 28.7455 13.0984 28.93 13.1039 29.1315 13.1664 29.3031 13.219 29.702 13.2761 29.9643 13.2438 30.2066 13.2137 30.5651 13.1103 30.8378 13.0232 31.0328 12.9608 30.9941 12.9112 31.2435 12.8222 31.4671 12.7423 31.6131 12.711 31.7612 12.693 31.951 12.6696 32.1042 12.7509 32.3052 13.1168 32.3657 13.2929 32.2702 13.3937 32.1441 13.5792 32.0722 13.725 31.9964 13.8486 31.8742 13.9466 31.6842 14.1401 31.4761 14.2326 31.1649 14.3028 30.9896 14.3426 30.7449 14.4106 30.5624 14.4305 30.3558 14.453 30.0094 14.4692 29.8467 14.4636 29.6694 14.4417 29.4364 14.4208 29.3455 14.4173 29.2749 14.4151 29.1907 14.3827 29.1679 14.4358 29.1502 14.5162 29.2298 14.6522 29.282 14.7431 29.3967 14.9434 29.6344 15.2427 29.746 15.5053 29.8832 15.8269 30.1942 16.2586 29.9215 16.5182 29.8828 16.567 29.8302 16.6362 29.7659 16.643zm-1.6335-4.6563C28.1001 11.9946 28.063 11.9589 28.0393 11.9281 27.9938 11.8687 27.977 11.8319 27.9776 11.7715 27.9799 11.6365 28.0581 11.6175 28.1554 11.4014 28.1472 11.1103 28.1073 11.0681 27.9901 10.9585 27.8804 10.8555 27.7767 10.8019 27.6088 10.7841 27.5284 10.8183 27.3942 10.7992 27.3199 10.7935 27.22 10.7064 27.1377 10.5918 27.162 10.4806 27.1868 10.3698 27.3187 10.2615 27.4074 10.1722 27.596 9.98135 27.9018 9.82046 28.0243 9.73604 28.2512 9.62034 28.4988 9.56653 28.6693 9.74797 28.7158 9.79793 28.7748 9.85889 28.8147 9.93815 28.9135 10.1925 28.9875 10.508 29.0205 10.718 29.0345 10.9667 28.9312 11.2256 28.8684 11.3281 28.8223 11.4044 28.7113 11.3902 28.6828 11.4746 28.5059 11.655 28.3943 11.7076 28.2493 11.8308 28.1967 11.8751 28.202 11.9206 28.1324 11.9867zm-2.7845-1.4569C25.2165 10.5565 25.0519 10.6612 24.8641 10.6658 24.7295 10.5054 24.7785 10.3408 24.8622 10.215 25.0023 10.0031 24.9411 9.92503 25.1733 9.79727 25.2345 9.75181 25.3885 9.69389 25.4907 9.67998 25.6514 9.75472 25.8374 10.0549 25.7874 10.2033 25.7724 10.2473 25.7507 10.2762 25.7202 10.3141 25.6203 10.3649 25.4305 10.4727 25.3479 10.5298z" fill="#0068ab"/><path fill-rule="evenodd" clip-rule="evenodd" d="M66.1473 22.352C66.0714 22.2048 66.0345 22.0597 66.0556 21.9583 66.1052 21.7179 66.3615 21.6118 66.5079 21.4771 66.58 21.4552 66.639 21.415 66.6842 21.4259 66.8468 21.4642 66.8979 21.7164 67.0899 21.9255 67.23 21.9789 67.3709 22.0322 67.5111 22.086 67.7226 22.0379 67.9438 21.9996 68.1549 21.9703 68.3609 21.8174 68.4397 21.7637 68.5927 21.7509 68.7782 21.6348 68.9762 21.4529 69.0491 21.3128 68.9119 20.9645 68.5765 20.7782 68.3529 20.6543 67.9893 20.2583 67.6651 20.0442 67.3244 19.7537 67.1391 19.4126 67.5023 19.1519 67.6219 19.0423 67.9829 19.0577 68.1471 18.9975 68.3939 19.4656 68.7039 19.803 69.1362 20.1546 69.5111 20.5228 69.7009 20.5306 69.7955 20.335 69.8174 20.2783 69.9169 20.1682 70.0071 20.0674 70.1062 19.9759 69.9882 19.8477 69.8692 19.7185 69.7407 19.5987 69.3342 19.5336 69.3305 18.9528 69.3357 18.8202 69.7693 18.0381 70.1701 18.6932 70.6183 19.1406 70.8024 19.2815 71.0842 19.389 71.3242 19.5708 71.3741 19.7248 71.4249 19.8792 71.4847 20.0442 71.4114 20.4217 71.2461 20.7204 70.7577 20.7847 70.5792 20.9492 70.3853 21.0364 70.4444 21.4391 70.5716 21.577 70.7084 21.7261 70.8354 21.8835 70.8129 21.9591 70.7903 22.0345 70.7768 22.1194 70.4605 22.4106 69.9026 22.0826 69.5604 22.068 69.4427 22.1393 69.326 22.2107 69.1978 22.2908 68.7703 22.5015 68.1662 22.5808 67.6895 22.8179 67.3108 22.7825 66.9392 22.7573 66.5696 22.7325 66.3836 22.6097 66.2577 22.452 66.1473 22.352zM67.2447 16.9219C67.085 16.5353 67.1159 16.3633 67.3239 16.1717 67.4806 16.0638 67.6278 15.9654 67.7845 15.8768 68.0783 15.6796 68.4123 15.4458 68.7106 15.592 68.9161 15.4771 69.2219 15.6708 69.4243 15.8512 69.5015 15.835 69.5769 15.8385 69.6524 15.8414 69.8515 15.6596 69.9342 15.5105 69.9559 15.4349 70.0853 15.2975 70.2155 15.1607 70.3441 15.042 70.5593 14.9176 70.7829 14.8034 70.9973 14.6983 71.0954 14.6265 71.2029 14.5642 71.3103 14.5022 71.7363 14.1103 71.7968 14.2552 72.2235 14.0832 72.2803 14.0859 72.7232 14.4278 72.7526 14.6389 72.6327 14.7673 72.5227 14.9052 72.4111 15.0438 72.2086 15.1017 72.005 15.1795 71.8021 15.2565 71.7818 15.293 71.7611 15.3309 71.7304 15.3767 72.0347 15.3895 72.2942 15.3343 72.6095 15.3185 72.9486 15.1712 73.2717 14.9846 73.5801 15.1025 73.7541 15.2907 73.9028 15.3546 73.7158 15.7283 73.5993 15.7798 73.4923 15.8418 73.3844 15.9042 73.1939 15.8959 72.9498 16.048 72.7409 16.0394 72.5166 16.1536 72.3464 16.127 72.2829 16.4958 72.407 16.4921 72.5309 16.4876 72.6541 16.5022 72.7109 16.5233 72.7664 16.5443 72.813 16.5755 72.7436 16.639 72.674 16.7028 72.6042 16.7851 72.4121 16.8159 72.2198 16.8644 72.0275 16.9133 71.9001 16.994 71.6285 17.097 71.4087 17.1161 71.2615 17.2334 71.1134 17.3513 70.965 17.4689 70.8786 17.5797 70.9132 17.7165 71.1067 17.8363 71.1187 17.8438 71.1562 17.8731 71.171 17.8758 71.1935 17.8803 71.2299 17.8927 71.2716 17.8678 71.3102 17.8446 71.3422 17.7699 71.4032 17.7267 71.464 17.6837 71.624 17.523 71.6874 17.499 71.7341 17.4813 71.7826 17.464 71.8111 17.4576 71.8396 17.4513 71.9076 17.446 71.9358 17.4373 72.003 17.4163 72.0253 17.4046 72.0691 17.3949 72.2833 17.3468 72.4336 17.3337 72.6488 17.2923 72.6804 17.2735 72.7454 17.2559 72.7661 17.2285 72.8171 17.1609 72.8615 17.1165 72.9254 17.07 72.9705 17.0368 73.0467 16.9838 73.0561 16.9197 73.0764 16.7776 73.0956 16.6447 73.121 16.5128 73.5298 16.0631 73.7079 15.9177 74.2636 15.8459 74.5562 15.9061 74.8812 15.8817 75.0923 16.2908 75.0686 16.4035 74.9582 16.5421 74.8245 16.7749 74.6505 16.8253 74.4772 16.8742 74.3124 16.9342 74.2071 16.958 73.9311 16.9568 73.8811 17.2209 73.8713 17.2807 73.9889 17.2807 74.0189 17.3018 74.0329 17.3114 74.0527 17.3018 74.063 17.3002 74.1498 17.284 74.1914 17.2262 74.2403 17.215 74.4183 17.1732 74.546 17.2021 74.7264 17.233 75.1288 17.174 75.418 17.381 75.7662 17.7011 75.8031 17.7402 75.8831 17.8675 75.8774 18.0001 75.8136 18.1504 75.7591 18.3105 75.6952 18.4784 75.4947 18.6992 75.3045 18.9291 75.1141 19.1595 75.0235 19.2602 74.8744 19.5262 74.6058 19.5716 74.4784 19.6516 74.3259 19.7545 74.1887 19.8443 73.916 19.9443 73.6655 19.9529 73.4558 19.9443 73.3934 19.9761 73.3618 19.9349 73.327 19.9562 73.2901 19.9792 73.2852 19.9984 73.3311 20.0832 73.4134 20.2362 73.679 20.4829 73.7947 20.6088 74.1182 20.8414 74.2226 20.8553 74.0302 21.3429 73.9115 21.4519 73.5223 21.8647 73.2732 21.8913 73.2185 21.8516 73.1617 21.8295 73.1053 21.8084 72.905 21.5905 72.913 21.3997 72.9171 21.305 72.9776 21.2309 73.0381 21.1574 73.0981 21.0837 72.999 20.9559 72.9085 20.838 72.8081 20.7286 72.7371 20.6115 72.6658 20.4942 72.5847 20.3856 71.7585 19.8837 71.1642 19.0587 70.6093 18.4348 70.2982 18.136 70.0014 17.8018 69.6997 17.5125 69.5525 17.4039 69.3635 17.2833 69.2561 17.2221 68.9408 17.0425 68.6839 17.0196 68.434 17.0917 68.2864 17.1341 67.9852 17.2453 67.9172 17.2348 67.6764 17.1931 67.2725 16.9887 67.2447 16.9219zM70.1438 16.6341C70.1487 16.52 70.3144 16.4227 70.3241 16.4133 70.3715 16.4057 70.4293 16.408 70.4864 16.4106 70.6803 16.3234 70.8407 16.1393 70.9981 16.032 71.0845 16.0064 71.1804 15.9913 71.2761 15.9774 71.1904 16.2021 71.0815 16.3023 70.7893 16.4426 70.6517 16.5503 70.5135 16.6592 70.3752 16.7862 70.3016 16.7266 70.2182 16.6754 70.1438 16.6341zM71.8367 18.3559C71.813 18.3228 71.8029 18.2841 71.8074 18.2296 71.8092 18.2048 71.8133 18.171 71.8344 18.1473 71.9989 17.9964 72.1983 17.8326 72.3637 17.6972 72.3777 17.686 72.3896 17.6718 72.4058 17.6632 72.4166 17.6575 72.4369 17.6436 72.4494 17.6409 72.5034 17.63 72.5519 17.6335 72.6064 17.6214 72.6158 17.6196 72.6263 17.6116 72.6353 17.6155 72.6478 17.6206 72.6537 17.6357 72.6627 17.6458 72.6902 17.6767 72.7172 17.7097 72.7443 17.7541 72.6947 17.8836 72.6601 18.0005 72.6109 18.1463 72.6068 18.1586 72.6083 18.185 72.5914 18.2044 72.5763 18.2218 72.5519 18.2312 72.535 18.239 72.3986 18.3044 72.2661 18.36 72.1225 18.4317 72.1105 18.4378 72.0906 18.4551 72.0775 18.4588 72.0538 18.4655 72.0347 18.4577 72.0169 18.452 71.9485 18.4295 71.8607 18.3799 71.8367 18.3559zM72.4009 18.8765C72.3697 18.8337 72.3642 18.7624 72.3832 18.7391 72.4543 18.7548 72.5294 18.7266 72.7619 18.6226 72.8071 18.6023 72.8288 18.5906 72.8641 18.5564 72.8886 18.5332 72.9122 18.5091 72.9351 18.4855 73.2365 18.1714 73.4051 17.8479 73.7523 17.7097 73.8033 17.689 73.8819 17.6935 73.9427 17.6804 74.0089 17.6966 74.0738 17.7131 74.1332 17.7435 74.1565 17.7555 74.1824 17.7882 74.2 17.7871 74.4205 17.7634 74.5792 17.8074 74.7309 17.887 74.8665 17.9585 74.8646 18.0587 74.9357 18.1895 74.9281 18.3604 74.818 18.4991 74.6095 18.6899 74.5821 18.6606 74.545 18.6399 74.5171 18.6289 74.5303 18.325 74.4885 18.3994 74.3338 18.2308 73.7722 18.1 73.8228 18.073 73.4513 18.3152 73.4257 18.3318 73.3491 18.4258 73.318 18.4581 73.2432 18.5347 73.153 18.5757 73.1057 18.6053 72.9363 18.7454 72.8122 18.8165 72.7338 19.002 72.715 19.046 72.6725 19.0628 72.582 19.0253 72.5264 18.9844 72.4506 18.9084 72.4009 18.8765zM73.5445 19.3319C73.498 19.2838 73.5617 19.2293 73.6046 19.2031 73.7259 19.1275 73.7978 19.0332 73.904 18.9359 73.9254 18.9164 74.0314 18.9397 74.0531 18.9197 74.0885 18.9596 74.1115 18.9836 74.1478 19.0231 74.2159 19.0964 73.774 19.4052 73.7274 19.3984 73.6778 19.3822 73.6722 19.3349 73.635 19.3143 73.6076 19.303 73.5666 19.3372 73.5445 19.3319z" fill="#0068ab"/><path fill-rule="evenodd" clip-rule="evenodd" d="M43.9995 14.6078c16.2306.0 29.3929 13.1624 29.3929 29.3925.0 16.2307-13.1623 29.393-29.3929 29.393-16.2306.0-29.3933-13.1623-29.3933-29.393.0-16.2301 13.1627-29.3925 29.3933-29.3925zm7.7912 38.6799 2.5975 3.3247C54.6681 56.5065 54.9472 56.3922 55.2245 56.2706 55.487 56.1549 55.7452 56.0339 55.9987 55.9076L55.2624 51.7544C55.7482 51.4513 56.2072 51.12 56.6393 50.7657l3.7282 1.9824C60.5798 52.5374 60.7883 52.3199 60.992 52.0959 61.1851 51.8838 61.3715 51.668 61.5517 51.4495l-2.357-3.4879C59.5132 47.4894 59.7995 46.998 60.0532 46.492L64.2577 46.7864C64.3663 46.5073 64.4681 46.2237 64.5632 45.9362 64.6529 45.6639 64.736 45.3911 64.8115 45.118l-3.5622-2.221C61.3508 42.3347 61.4153 41.7655 61.4431 41.1925l3.9435-1.4346C65.3727 39.4587 65.3502 39.1579 65.3198 38.8565 65.2916 38.5714 65.2564 38.2885 65.2142 38.0083L61.0821 37.4317C60.9454 36.8741 60.7711 36.3208 60.5577 35.7755l3.0016-2.8979C63.4249 32.6101 63.2824 32.3445 63.1319 32.0812 62.9898 31.8324 62.8426 31.5883 62.69 31.3494l-3.9897 1.148C58.3385 32.029 57.9497 31.5902 57.5368 31.1821l1.555-3.847C58.8596 27.1458 58.6214 26.961 58.3771 26.7818 58.1461 26.612 57.9121 26.449 57.6762 26.293l-3.1621 2.6579C53.9919 28.6708 53.452 28.4265 52.8993 28.2195L52.7555 24.0893C52.4666 24.0104 52.174 23.9386 51.8779 23.8744 51.5976 23.8132 51.3178 23.7594 51.0383 23.7129l-1.7999 3.6993C48.6456 27.3674 48.0483 27.3629 47.4505 27.399l-1.8033-3.6978C45.3512 23.7467 45.0544 23.7999 44.758 23.8616 44.4773 23.9199 44.1998 23.9848 43.9255 24.0559L43.7862 28.1564C43.2297 28.3577 42.6816 28.5985 42.1444 28.88l-3.149-2.6425C38.7433 26.3997 38.4943 26.5692 38.2486 26.7461 38.0156 26.9132 37.7883 27.0853 37.5671 27.2619l1.3603 3.3585C40.1405 31.1475 41.7915 32.4504 42.4265 33.3694 42.8105 33.059 43.2245 32.775 43.667 32.5221 48.1113 29.9848 53.7737 31.5312 56.311 35.9758c2.5373 4.4439.991 10.1058-3.4533 12.6433C52.5215 48.811 52.1792 48.9793 51.8314 49.1247L51.7907 53.2877zM38.4319 39.0094V56.1281C38.4319 56.94 39.4684 57.5985 40.7464 57.5985 42.0241 57.5985 43.0607 56.94 43.0607 56.1281V39.265C43.0392 34.9337 38.9022 31.4403 33.8038 31.4403c-5.0987.0-9.2357 3.4934-9.2571 7.8085L24.5463 39.2818c0 .2074.0.208200000000005.0.0L24.5474 54.7971 29.1748 59.43V39.0094c0-1.6236 2.0725-2.9404 4.6286-2.9404 2.5558.0 4.6285 1.3168 4.6285 2.9404zm6.9509 17.9629V40.0573L50.0112 40.0603 50.0115 56.7168C49.9897 61.0477 45.8527 64.5411 40.7544 64.5411c-5.0988.0-9.2358-3.4934-9.2573-7.8081L31.4969 56.6996c0-.207799999999999.0-.2074.0.0L31.5235 40.0001 36.1251 40.014V56.9723C36.1251 58.5956 38.1982 59.9124 40.754 59.9124 43.3097 59.9124 45.3828 58.5956 45.3828 56.9723z" fill="#0068ab"/><path fill-rule="evenodd" clip-rule="evenodd" d="M10.1674 23.8815l5.716 3.3885-1.3191 2.3846L13.7382 29.165l.8142-1.4711-1.4991-.8889-.5863 1.0597-.8262-.4894.5868-1.0599-1.7071-1.012L9.70675 26.7745 8.84834 26.2658l1.31906-2.3843zM8.6665 26.531l5.589 3.7787L13.7194 31.5671 7.25623 29.8397 7.67768 28.8502l1.38708.4024L9.47985 28.2795 8.26347 27.4759 8.6665 26.531zm1.6166 2.2598L9.97049 29.5249l2.65611.8216L12.6525 30.2861l-2.3694-1.4953zM8.73184 30.5824 8.57373 31.5862C8.24956 31.4987 7.99483 31.4836 7.81035 31.5408 7.6244 31.5975 7.49929 31.732 7.43435 31.9421 7.37763 32.1246 7.3881 32.2906 7.46325 32.4428 7.53905 32.5931 7.6684 32.6987 7.85024 32.7587 8.17746 32.8677 8.68307 32.7378 9.36866 32.3715L9.48847 32.3064C10.1613 31.9492 10.6573 31.74 10.9781 31.6806 11.2967 31.6223 11.61 31.6433 11.9166 31.7451 12.3595 31.8925 12.6859 32.1667 12.8948 32.5675 13.103 32.9698 13.1401 33.3869 13.0049 33.8227 12.8737 34.2445 12.6274 34.5437 12.2637 34.7206 11.9015 34.8983 11.4759 34.9276 10.9856 34.8074l.1713-1.0249C11.4424 33.8573 11.6596 33.8735 11.8076 33.828 11.9557 33.7821 12.0571 33.672 12.1115 33.4955 12.1623 33.3329 12.1488 33.1863 12.0739 33.0533 11.9989 32.9219 11.8722 32.8253 11.6961 32.7671 11.3316 32.6461 10.7587 32.8027 9.97579 33.2362L9.90104 33.2761C9.324 33.5935 8.87657 33.7783 8.55611 33.8313 8.2375 33.8843 7.90577 33.8538 7.56543 33.7408 7.1074 33.5886 6.77872 33.3171 6.57515 32.9264 6.37343 32.5341 6.34176 32.1145 6.48158 31.6648c.154-.497.43046-.84.82793-1.0316C7.70671 30.4434 8.18077 30.427 8.73184 30.5824zm2.73776 4.1517.9282.2179-.6942 3.1584-.9284-.2179.2349-1.0685-5.49587-1.2909.22544-1.0259 5.49613 1.2909.2338-1.064zM6.40007 40.6518l3.37281.1691C10.2917 40.8468 10.6903 41.0136 10.9714 41.3198 11.2513 41.6271 11.3793 42.0385 11.3545 42.555 11.3312 43.0412 11.1622 43.4195 10.8473 43.6892 10.5307 43.959 10.1126 44.0799 9.59039 44.0536L8.95808 44.0221 9.0095 42.9424 9.73352 42.9788C9.96042 42.9901 10.1336 42.9536 10.2512 42.8676 10.3691 42.7816 10.433 42.6493 10.4416 42.4705 10.4499 42.292 10.3988 42.1538 10.2899 42.0565 10.1809 41.9592 10.0122 41.9054 9.78534 41.8942L6.11301 41.7098C5.88466 41.6984 5.71144 41.7349 5.59043 41.821 5.47142 41.907 5.40754 42.0393 5.39879 42.2177 5.39018 42.3965 5.44134 42.5344 5.55173 42.6317 5.66412 42.7294 5.8327 42.7831 6.06119 42.7943L6.9575 42.8394 6.90608 43.9191 6.21784 43.8845C5.64159 43.8556 5.20384 43.6933 4.90485 43.3961 4.60612 43.099 4.46828 42.6907 4.49307 42.1722 4.51865 41.6414 4.69293 41.2465 5.01485 40.9903 5.3373 40.7337 5.79891 40.6215 6.40007 40.6518zm4.74333 3.6185L11.1993 45.311 8.51396 45.468 8.57042 46.5199 11.2554 46.3629 11.3117 47.4133 4.73282 47.7977 4.67676 46.7472 7.6199 46.5756l-.05633-1.0523L4.62083 45.6953 4.5649 44.6547 11.1434 44.2703zM4.90564 48.9078 11.4274 47.931 11.5743 48.9913 5.05249 49.968l-.14685-1.0602zm.21218 2.1177 6.38808-1.6773L11.7291 50.2633 8.22769 52.5602C8.1597 52.6045 8.07064 52.6597 7.95839 52.7259 7.8464 52.7931 7.72579 52.8633 7.59551 52.9355 7.77311 52.8539 7.93811 52.7808 8.08986 52.7191 8.2432 52.656 8.35505 52.6151 8.42914 52.5955L12.0649 51.6408 12.2979 52.5967l-6.38806 1.677L5.67684 53.3183 8.9036 51.1465C8.91567 51.1367 8.93634 51.1232 8.96404 51.1055 9.18457 50.9564 9.37727 50.8377 9.54493 50.749 9.3289 50.8437 9.14998 50.9207 9.00579 50.98 8.86146 51.0398 8.75676 51.077 8.68903 51.0951L5.34856 51.9719 5.11782 51.0255zm.83893 3.7936L12.515 53.5129 12.9726 54.8027 7.16001 58.2113l-.35982-1.0144L8.06878 56.4883 7.71492 55.4905 6.30054 55.788 5.95675 54.8191zM8.63642 55.2798 8.90321 56.0323l2.46379-1.321L11.3451 54.6493 8.63642 55.2798zm5.79128 3.244L14.9652 59.4442 10.5987 62.1844C10.4349 62.2873 10.3304 62.4132 10.2838 62.5608 10.2381 62.7099 10.2557 62.8553 10.3395 62.9984 10.4224 63.1405 10.5356 63.222 10.6787 63.2431 10.8237 63.2634 10.9773 63.2216 11.1438 63.1172L15.5103 60.3766l.5351.9163-4.2146 2.6452C11.3342 64.2495 10.8846 64.3702 10.4777 64.2995 10.072 64.2281 9.73948 63.97 9.48025 63.5263 9.21771 63.0774 9.15078 62.6487 9.27933 62.2426 9.40736 61.8361 9.72676 61.4739 10.2365 61.1539l4.1912-2.6301zm-3.5292 7.18 5.2505-4.1284L16.6994 62.3268 14.3415 65.857C14.2958 65.9254 14.2346 66.0122 14.156 66.1185 14.0782 66.226 13.9934 66.3394 13.9009 66.4585 14.0339 66.3116 14.1578 66.1775 14.2747 66.0595 14.3919 65.9393 14.4795 65.856 14.5403 65.8083l2.9882-2.35L18.1037 64.2435 12.8535 68.3722 12.2784 67.5871 14.4306 64.2829C14.4381 64.269 14.4521 64.248 14.4711 64.2209 14.6177 63.9944 14.7503 63.8073 14.8713 63.6578 14.7082 63.8321 14.5727 63.9752 14.4621 64.0884 14.3517 64.2018 14.269 64.2784 14.2135 64.3224L11.468 66.4814 10.8985 65.7038zm2.6741 3.4871L18.456 64.6042 19.1503 65.3975 14.2672 69.9839 13.5726 69.1909zm5.5634-3.6998L19.8521 66.2023 17.5879 69.5545C17.4436 69.7687 17.3012 69.9643 17.1618 70.1406 17.0213 70.3179 16.8725 70.49 16.7174 70.6575L16.6347 70.7469C16.8417 70.5373 17.0394 70.345 17.2294 70.1699 17.4196 69.9948 17.5927 69.8427 17.7487 69.7138L20.8743 67.2173 21.5945 67.933l-5.4041 4.0919L15.4235 71.2638l3.7125-5.7727zM17.5218 73.3474l4.2199-5.2453L23.7783 69.8592l-.6097.7577-1.2567-1.0842-1.1068 1.3758L21.7106 71.6899l-.6098.7577L20.1955 71.6662 18.9351 73.2328l1.2565 1.0843L19.5583 75.1045 17.5218 73.3474zM24.1867 71.2883l-1.0662 1.6489L23.4538 73.1682C23.6491 73.3035 23.8223 73.3361 23.9774 73.267 24.1326 73.1982 24.3163 72.9976 24.5293 72.6685 24.7224 72.3695 24.8155 72.1359 24.8106 71.9672 24.8039 71.7977 24.6969 71.6422 24.4903 71.4991L24.1867 71.2883zm-1.5958 2.4682-1.5427 2.3852L20.2049 75.5572 23.8726 69.884 25.1106 70.742C25.5756 71.0644 25.8265 71.4262 25.8671 71.8289 25.9069 72.2309 25.7398 72.7201 25.3674 73.2959 25.1383 73.651 24.9106 73.9102 24.6849 74.0718 24.4602 74.234 24.2078 74.3171 23.9309 74.3231L22.847 77.3883l-.8735-.6053L22.9924 74.0353 22.5909 73.7565zm1.3873 2.3612L24.899 76.4686C24.7539 76.7819 24.6908 77.0381 24.7097 77.2365 24.7277 77.436 24.831 77.5889 25.0177 77.6948 25.18 77.7872 25.3393 77.8078 25.4978 77.7601 25.6549 77.7116 25.7796 77.6004 25.872 77.427 26.0376 77.1147 26.0114 76.576 25.7958 75.8097L25.7571 75.6751C25.5478 74.9234 25.4445 74.3794 25.4497 74.0421 25.4554 73.7069 25.5357 73.3925 25.6913 73.0998 25.9156 72.6779 26.2379 72.3976 26.6579 72.2616 27.0795 72.1265 27.4814 72.1678 27.8684 72.3879 28.2434 72.6009 28.4797 72.9083 28.5773 73.3117 28.6761 73.7137 28.6224 74.1521 28.4142 74.6277L27.4761 74.2592C27.6016 73.9831 27.6588 73.7655 27.6438 73.6062 27.6291 73.447 27.5441 73.323 27.3871 73.2339 27.2429 73.1517 27.1012 73.1374 26.9611 73.188 26.8217 73.2396 26.7064 73.3504 26.6169 73.5183 26.4326 73.8658 26.4713 74.4782 26.732 75.3565L26.7553 75.4396C26.9453 76.0869 27.0348 76.5772 27.0231 76.9126 27.0125 77.247 26.9198 77.5783 26.7473 77.9033 26.5155 78.3394 26.1951 78.6224 25.7855 78.7553 25.3754 78.8861 24.9715 78.838 24.5721 78.6111 24.1307 78.3597 23.8584 78.0138 23.7536 77.573 23.6498 77.1335 23.7249 76.6482 23.9782 76.1177zm2.7432 3.4239 2.767-6.1965L30.4271 73.7941l-2.7669 6.1964L26.7214 79.5416zM30.0548 74.7314 30.3933 73.8095l2.9221 1.1485L32.9769 75.8795 31.9884 75.4911l-2.0045 5.459L29.0344 80.577l2.0047-5.459L30.0548 74.7314zm2.8078.1511L33.8598 75.1548 33.8244 77.9668 33.886 77.9837 35.1675 75.5124 36.166 75.7849 34.0351 79.3328 33.3356 82.0711 32.3536 81.8033 33.0219 79.1874 32.8626 74.8825zM40.4672 81.8645 40.7768 78.0675C40.796 77.833 40.767 77.6531 40.6881 77.5279 40.6093 77.4032 40.4842 77.3326 40.3121 77.3176S40.0048 77.351 39.9071 77.4604C39.809 77.5701 39.7511 77.7429 39.732 77.9774L39.4224 81.7743C39.4034 82.0087 39.4322 82.1891 39.5107 82.3171 39.5897 82.4434 39.7148 82.5141 39.8868 82.529 40.0589 82.5438 40.1942 82.4956 40.2921 82.3845 40.3902 82.2717 40.4481 82.0988 40.4672 81.8645zM38.6963 77.954C38.7399 77.4179 38.9152 77.0111 39.2207 76.7304 39.5273 76.4509 39.9288 76.3322 40.4262 76.3754 40.8943 76.4156 41.2535 76.6038 41.5023 76.9404 41.7513 77.2755 41.8531 77.7128 41.8092 78.2524L41.5248 81.7378C41.4763 82.3333 41.3039 82.7807 41.0063 83.0802 40.7088 83.3792 40.3099 83.5081 39.8105 83.4649 39.3053 83.4212 38.9326 83.2275 38.6936 82.8833 38.4547 82.5395 38.3615 82.0576 38.4119 81.4396L38.6963 77.954zM42.3167 83.5021 42.4121 76.6781 45.0592 76.715 45.0452 77.7012 43.4136 77.6782 43.3889 79.4679 44.5648 79.4845 44.5509 80.4703 43.3749 80.4538 43.3321 83.5164 42.3167 83.5021zM48.2941 81.55 49.2342 81.2562C49.2999 81.5963 49.3983 81.8404 49.5287 81.987 49.6591 82.135 49.8303 82.192 50.0414 82.1605 50.2245 82.133 50.3638 82.0505 50.463 81.9137 50.5603 81.7769 50.5953 81.6105 50.5681 81.4144 50.5194 81.062 50.1854 80.6484 49.5678 80.1709L49.4584 80.0882C48.8547 79.6186 48.4561 79.2486 48.2642 78.9762 48.074 78.7054 47.9553 78.4041 47.9095 78.0742 47.8438 77.5975 47.9388 77.173 48.1954 76.8026 48.4534 76.4318 48.7991 76.2139 49.2364 76.1485 49.6597 76.0849 50.0269 76.183 50.3394 76.4441 50.652 76.7029 50.8642 77.0866 50.9739 77.5957L50.0099 77.8864C49.9499 77.5877 49.8686 77.3785 49.7646 77.2609 49.6601 77.1429 49.5205 77.0971 49.3431 77.1237 49.18 77.1481 49.0587 77.2248 48.976 77.3529 48.8945 77.4806 48.8663 77.6411 48.8927 77.8308 48.9471 78.2229 49.3337 78.6877 50.0523 79.2261L50.1196 79.2779C50.6478 79.6758 51.004 80.0112 51.1896 80.2862 51.3755 80.5594 51.4939 80.8821 51.5446 81.2488 51.613 81.7413 51.5209 82.167 51.2711 82.5282 51.0194 82.8882 50.6684 83.102 50.2173 83.1696 49.7187 83.2439 49.2999 83.1376 48.9598 82.8518 48.6218 82.5655 48.3998 82.1316 48.2941 81.55zM51.9924 80.967 51.223 77.5621C51.1046 77.0385 51.1501 76.5956 51.3567 76.2307 51.5653 75.8674 51.912 75.626 52.3981 75.5076 52.8554 75.3964 53.2532 75.4599 53.5897 75.6987 53.9272 75.9393 54.1544 76.3224 54.2736 76.8495L54.4178 77.4878 53.4015 77.735 53.2363 77.0043C53.1844 76.7756 53.1033 76.6132 52.9909 76.5196 52.8789 76.4261 52.7385 76.399 52.5701 76.44 52.4022 76.4809 52.288 76.57 52.2276 76.7056 52.1671 76.8409 52.1637 77.0238 52.2155 77.2529L53.0534 80.9603C53.1056 81.1909 53.1867 81.3532 53.2997 81.4497 53.4125 81.5447 53.5526 81.5718 53.7205 81.5308 53.8888 81.4899 54.0031 81.4009 54.0631 81.2637 54.1229 81.1251 54.1262 80.9422 54.074 80.7119L53.8696 79.8068 54.8859 79.5597 55.0429 80.2543C55.174 80.8358 55.1439 81.3168 54.9502 81.6966 54.7563 82.0763 54.4147 82.3265 53.9272 82.4453 53.4275 82.5667 53.0135 82.502 52.687 82.2522 52.3606 82.0024 52.1295 81.574 51.9924 80.967zM56.1884 81.5944 54.2431 75.076 55.2315 74.7588l1.9449 6.5181L56.1884 81.5944zM58.1468 80.9095 55.7672 74.5481 58.2404 73.5533 58.5841 74.4725 57.0581 75.086 57.6824 76.7545 58.7817 76.3122 59.1259 77.2316 58.0262 77.6737l.7104 1.8995L60.2626 78.9597 60.6199 79.9147 58.1468 80.9095zm3.6175-1.5565-3.1107-6.0127L59.4572 72.894 62.4521 75.8547C62.5103 75.9122 62.5832 75.9884 62.6723 76.0853 62.7624 76.1815 62.8572 76.286 62.9563 76.399 62.8372 76.2405 62.7286 76.0925 62.6346 75.9547 62.5386 75.8164 62.4728 75.7134 62.437 75.6443l-1.7705-3.4224L61.5053 71.7556l3.1107 6.0125L63.7772 78.2346 60.9651 75.5191C60.9532 75.5095 60.9351 75.4918 60.9123 75.4681 60.7194 75.2828 60.5621 75.118 60.438 74.9711 60.5789 75.1653 60.6942 75.326 60.7845 75.4569 60.875 75.5873 60.9354 75.6833 60.9686 75.7472L62.5949 78.8913 61.7643 79.353zM64.4282 75.8535 62.5314 72.9615C62.2398 72.5168 62.1286 72.087 62.196 71.6696 62.265 71.2529 62.505 70.8991 62.918 70.6083 63.3068 70.3345 63.7001 70.2461 64.0977 70.3442 64.4958 70.4434 64.8404 70.7169 65.1337 71.1643L65.4895 71.7065 64.6258 72.3147 64.2189 71.6936C64.0912 71.4994 63.9593 71.3781 63.8219 71.3326 63.6847 71.2871 63.5446 71.3138 63.4015 71.4145 63.2587 71.5152 63.1832 71.6403 63.1734 71.7894 63.164 71.9383 63.2237 72.1103 63.3515 72.3045l2.0651 3.1489C65.545 75.6492 65.6769 75.7706 65.8159 75.8187 65.9542 75.8656 66.0944 75.8386 66.2371 75.7382 66.3803 75.6375 66.4558 75.5121 66.4648 75.3618 66.4726 75.2103 66.4122 75.0387 66.284 74.8426L65.7799 74.074 66.6436 73.4661l.387.5899C67.3544 74.5503 67.4922 75.0102 67.4426 75.4366 67.3931 75.8629 67.1609 76.2229 66.7466 76.5147 66.322 76.8139 65.913 76.907 65.5215 76.795 65.1304 76.6834 64.7663 76.3689 64.4282 75.8535zm4.2756-.9362-4.1618-5.2865 2.0565-1.7371L67.1996 68.6574 65.931 69.7292 67.0223 71.1159 67.9363 70.3435 68.5378 71.1072 67.6238 71.8796l1.2428 1.5787L70.1352 72.3864 70.7599 73.1802l-2.0561 1.7371zm3.3218-2.9329L68.0231 66.4525 68.942 65.4604 74.4427 69.3738 73.7199 70.1545 72.5496 69.2848 71.8389 70.0527 72.7161 71.2388 72.0256 71.9844zM71.2528 69.2874 71.7893 68.7081l-2.224-1.7131L69.5209 67.0424l1.7319 2.245zM74.746 68.8325 69.6134 64.5587 70.1847 63.8228 74.0602 65.3349C74.1351 65.3641 74.2312 65.4051 74.3496 65.4581 74.4691 65.5099 74.5957 65.5678 74.7294 65.6316 74.56 65.5339 74.4044 65.4415 74.2658 65.3529 74.1249 65.2646 74.0258 65.1966 73.9664 65.1474L71.0451 62.7148 71.6421 61.9463 76.7746 66.2196 76.1777 66.9882 72.5639 65.6279C72.5494 65.6238 72.526 65.6148 72.496 65.6023 72.2488 65.5099 72.0414 65.4221 71.872 65.3371 72.0748 65.4585 72.2416 65.5599 72.3743 65.6437 72.5068 65.727 72.5989 65.7909 72.6534 65.8364L75.3372 68.0714 74.746 68.8325zM77.0429 63.935 77.3144 63.4817C77.4088 63.3242 77.4317 63.1758 77.3818 63.0394 77.331 62.9008 77.2063 62.7674 77.0052 62.6386L74.3109 60.9089C74.0809 60.7613 73.8785 60.7109 73.7027 60.7576 73.5268 60.8037 73.3642 60.9499 73.2165 61.1964L73.0945 61.4004 77.0429 63.935zM77.3366 65.3506l-5.5977-3.5933L72.5001 60.4863C72.7953 59.993 73.1391 59.7094 73.5309 59.6328 73.924 59.5572 74.3815 59.6881 74.9053 60.0239l2.5 1.6048C77.9498 61.9782 78.2789 62.3448 78.3927 62.7291 78.5054 63.1123 78.4156 63.5496 78.1226 64.0384L77.3366 65.3506zm-2.7492-6.7329L73.717 58.2205 74.98 55.2568 75.8505 55.6543 75.4233 56.657l5.1562 2.3533L80.1693 59.9731 75.013 57.6199 74.5874 58.6177zM81.2182 57.5233l-6.2359-2.1962L75.838 52.7263 76.739 53.0437 76.2107 54.6487 77.8464 55.2245 78.227 54.0682 79.1279 54.3856 78.7474 55.5417 80.6096 56.1976 81.1377 54.5926 82.0739 54.9225 81.2182 57.5233zM80.6464 53.3942 77.3539 52.6206C76.8475 52.5019 76.4831 52.266 76.2574 51.914 76.0338 51.5605 75.9763 51.1326 76.0871 50.628 76.1915 50.1536 76.4214 49.8114 76.7769 49.6021 77.1338 49.3932 77.5661 49.3496 78.0756 49.469L78.6929 49.614 78.4611 50.6686 77.7544 50.5025C77.5327 50.4503 77.3566 50.4552 77.2258 50.5187 77.0955 50.5826 77.0105 50.7013 76.9722 50.8756 76.9339 51.0499 76.961 51.1954 77.0519 51.3107 77.1428 51.4264 77.3001 51.5094 77.5214 51.5616L81.1066 52.4036C81.3298 52.4558 81.5059 52.4509 81.6396 52.3882 81.7715 52.325 81.8564 52.206 81.8947 52.0315 81.933 51.8573 81.906 51.7123 81.8136 51.5962 81.7197 51.4797 81.5623 51.3967 81.3396 51.3445L80.4642 51.1389 80.6964 50.0848 81.3681 50.2422C81.9304 50.3745 82.3343 50.6131 82.5789 50.9598 82.8231 51.3062 82.8903 51.7333 82.7791 52.2394 82.6649 52.7578 82.4271 53.1151 82.0668 53.3097 81.7065 53.5042 81.2331 53.5317 80.6464 53.3942zm-4.0716-4.5033L76.6946 47.8559 79.365 48.1843 79.4858 47.1379 76.8156 46.8096 76.9362 45.7649 83.4782 46.5696 83.3572 47.6144 80.4308 47.2544 80.3098 48.3008 83.2364 48.6606 83.1168 49.6957l-6.542-.8048zM83.4659 45.5409 76.8768 45.568 76.8742 44.6239 80.8072 43.2722C80.8834 43.2459 80.983 43.2151 81.107 43.1791 81.2317 43.1414 81.365 43.1039 81.5081 43.0663 81.317 43.1009 81.1397 43.1306 80.9781 43.1524 80.8147 43.1752 80.6964 43.1873 80.6204 43.1873L76.87 43.2031 76.8674 42.2169 83.4561 42.1898 83.4587 43.1756l-3.6373 1.2992C79.8075 44.4812 79.7842 44.4894 79.753 44.4992 79.5047 44.5889 79.2898 44.6559 79.1064 44.7001 79.3382 44.6622 79.5294 44.6321 79.6832 44.6108 79.8372 44.5893 79.9476 44.5793 80.0174 44.5789L83.4629 44.5646 83.4659 45.5409zm-1.7598-6.299-3.6572.4133C77.8231 39.6807 77.6578 39.7446 77.5542 39.8487 77.4512 39.9527 77.408 40.0936 77.4264 40.2717 77.4448 40.4493 77.5161 40.5771 77.6386 40.6559 77.7612 40.7345 77.9359 40.7601 78.1616 40.7345L81.8189 40.3213C82.0446 40.2957 82.2099 40.2314 82.3163 40.127 82.4214 40.0229 82.4646 39.8821 82.4459 39.7039 82.4275 39.5263 82.3561 39.3982 82.2322 39.32 82.1067 39.2419 81.932 39.216 81.7061 39.2419zM78.336 41.7924C77.8198 41.8507 77.4008 41.7508 77.0767 41.4938 76.754 41.2352 76.5654 40.8498 76.5117 40.3358 76.4613 39.8524 76.5709 39.4512 76.843 39.1334 77.1131 38.8162 77.5083 38.6288 78.0279 38.5701L81.3853 38.1907C81.959 38.1257 82.4159 38.2152 82.7558 38.4601 83.0959 38.7054 83.2937 39.0867 83.3476 39.6022 83.402 40.1243 83.289 40.5406 83.0083 40.8494 82.7277 41.1582 82.2889 41.3457 81.6934 41.4129l-3.3574.3795zm4.4845-4.7561-6.464 1.3288L76.1619 37.3429l5.5299-1.1369L81.3865 34.6037 82.32 34.4118 82.8205 37.0363zm-2.5889-4.6382-3.4949 1.192C76.521 33.6638 76.3719 33.7619 76.2914 33.8858 76.2115 34.0098 76.1976 34.1571 76.2513 34.3268 76.3053 34.4966 76.4007 34.6068 76.5361 34.6571 76.6716 34.7075 76.8479 34.695 77.0635 34.6213l3.4953-1.192C80.7744 33.3558 80.9237 33.2577 81.0066 33.1326 81.0882 33.0082 81.1021 32.8609 81.0484 32.6911 80.9946 32.5214 80.8992 32.4112 80.7621 32.3613 80.6239 32.3117 80.4476 32.3244 80.2316 32.3981zM77.4467 35.6181C76.953 35.7864 76.5232 35.7789 76.1548 35.5974 75.787 35.4144 75.5251 35.0782 75.3691 34.5869 75.2231 34.1247 75.2497 33.7088 75.4522 33.3396 75.6529 32.971 76.0018 32.7028 76.4984 32.5333l3.2084-1.0939C80.2553 31.2526 80.72 31.2414 81.1021 31.4078 81.4838 31.5743 81.7539 31.9044 81.9101 32.3973 82.0684 32.8959 82.0413 33.3276 81.8286 33.69 81.616 34.0522 81.2241 34.3303 80.6554 34.5241L77.4467 35.6181zm1.9832-4.8227L76.3253 32.1749C75.8478 32.3872 75.4191 32.4184 75.0363 32.2711 74.655 32.122 74.3653 31.8106 74.1689 31.3353 73.9803 30.8793 73.9683 30.4731 74.1321 30.12 74.2969 29.766 74.6344 29.476 75.1461 29.2487L75.7024 29.0016 76.0878 29.9343 75.4473 30.2187C75.2388 30.3115 75.0986 30.4227 75.0288 30.5535 74.9593 30.6846 74.9577 30.8322 75.0259 30.9968 75.0938 31.161 75.1983 31.2616 75.3372 31.2997 75.4766 31.338 75.6513 31.3094 75.8597 31.2166l3.3805-1.502C79.4506 29.621 79.5907 29.5098 79.6629 29.3776 79.7338 29.2465 79.7354 29.0984 79.6674 28.9344 79.5994 28.7698 79.4952 28.669 79.3544 28.6315 79.2124 28.5947 79.0381 28.6232 78.8277 28.7168L77.8814 29.1375 78.1237 29.7236 77.3527 30.0659 76.7251 28.547 79.7793 27.19 79.9713 27.6548 79.6294 28.0275C79.8608 28.0507 80.0528 28.118 80.2035 28.228 80.3559 28.3392 80.4755 28.5015 80.5637 28.7145 80.7422 29.147 80.7339 29.5399 80.5412 29.8968 80.3481 30.2525 79.9773 30.5523 79.4299 30.7954zM73.7203 30.2181 73.2334 29.2774 75.243 27.3839 75.2129 27.3257l-2.6181.7163L72.1071 27.0999 76.0639 26.2918 78.4742 24.9521 78.954 25.8788l-2.3022 1.2796-2.9315 3.0597z" fill="#0068ab"/></svg>