<svg id="logo" width="35vw" height="100%" viewBox="0 0 88 88" fill="none" xmlns="http://www.w3.org/2000/svg"><path d="M44 0C68.2346.0 88 19.7654 88 43.9994c0 24.2346-19.7654 44-44 44-24.234.0-44-19.7654-44-44C0 19.7654 19.766.0 44 0zm0 1.75339c-23.2685.0-42.24661 18.97751-42.24661 42.24601C1.75339 67.2685 20.7315 86.246 44 86.246c23.2691.0 42.2472-18.9775 42.2472-42.2466C86.2472 20.7309 67.2691 1.75339 44 1.75339z" fill="#004ea2"/><path d="M28.5451 62.7523c-2.7549-2.275-5.0038-5.1447-6.5473-8.41C20.512 51.1994 19.6806 47.6919 19.6806 43.9995c0-13.3932 10.9246-24.3178 24.3191-24.3178 13.3938.0 24.3184 10.9246 24.3184 24.3178C68.3181 47.6919 67.4861 51.2 66.0009 54.3423c-1.5429 3.2653-3.7918 6.135-6.5473 8.41L58.896 62.078C61.5535 59.8825 63.7229 57.1152 65.2105 53.9691 66.641 50.9423 67.442 47.5622 67.442 43.9989c0-12.9108-10.5303-23.4417-23.4417-23.4417-12.9121.0-23.4424 10.5309-23.4424 23.4417.0 3.5627.800999999999998 6.9434 2.2315 9.9702C24.2765 57.1146 26.4458 59.8819 29.1033 62.078L28.5451 62.7523z" fill="#004ea2"/><path fill-rule="evenodd" clip-rule="evenodd" d="M44.1474 66.4569 39.1672 58.8578C40.6965 58.0705 40.5071 55.6155 39.197 55.4113 37.7385 55.1828 36.5775 55.1126 35.5542 52.8197h2.3725L37.1984 50.831C34.4838 51.0694 33.93 50.315 32.6429 48.1947L36.0336 48.0786 35.3481 46.3481C31.6532 46.5195 30.6784 45.6136 29.7558 43.5082l4.3052-.1509L33.129 41.2984C28.7201 41.4214 27.7869 41.2966 26.1701 38.3151L31.647 38.2884 30.8746 36.327C25.8826 36.5424 24.6359 36.0538 23.2227 33.5572L34.4435 33.2734C36.0789 33.2318 37.9459 34.3463 38.6339 35.8296l1.3492 2.9114 1.4199-4.9001C42.1351 31.3164 47.6523 32.2316 49.428 33.9117L46.0907 35.1187 47.7237 39.0949C48.9071 36.3257 50.3569 33.2722 53.4762 33.2722H64.484C63.6371 35.7042 61.5925 36.9168 57.1482 36.1301L56.3671 38.189 61.8564 38.1723c-1.3138 3.0628-2.7717 3.4478-6.8546 2.9833L54.1493 43.2145 58.5191 43.3567C57.6784 45.2976 56.1566 46.458 52.7833 46.0545L52.073 48.0593 55.5525 48.0432C54.5553 50.482 53.9115 51.0265 50.74 50.8837l-.7271 1.9881L52.5194 52.8811C51.4658 55.004 51.1535 55.256 48.9046 55.4554 47.5678 55.5739 46.9718 57.7141 48.7519 58.9826L44.1474 66.4569z" fill="#004ea2"/><path fill-rule="evenodd" clip-rule="evenodd" d="M6.32121 58.6865 4.66219 54.2347 5.56869 53.9193l7.60461 1.1598-1.1635-3.1224L12.9163 51.6413 14.435 55.718 13.5291 56.0341l-7.60464-1.158 1.30262 3.495L6.32121 58.6865z" fill="#004ea2"/><path fill-rule="evenodd" clip-rule="evenodd" d="M9.21716 64.7576 8.75895 63.8679l3.57695-1.8397-1.1344-2.206L7.62458 61.6613 7.16636 60.7728l7.64624-3.9327L15.2708 57.7298l-3.2205 1.6553 1.135 2.2066 3.2205-1.6565L16.8628 60.8255 9.21716 64.7576z" fill="#004ea2"/><path fill-rule="evenodd" clip-rule="evenodd" d="M12.8439 69.6013l-2.7164-3.7937L17.2988 61.354l2.5841 3.6086L19.0863 65.4574 17.1144 62.7038l-2.2241 1.3815 1.8118 2.5295L15.9061 67.1096l-1.8117-2.5301-2.5587 1.5895 2.1048 2.9387L12.8439 69.6013z" fill="#004ea2"/><path fill-rule="evenodd" clip-rule="evenodd" d="M18.9378 75.5643 18.0275 74.7963l5.2782-6.4846L24.2166 69.0804 18.9378 75.5643z" fill="#004ea2"/><path fill-rule="evenodd" clip-rule="evenodd" d="M23.0256 78.4209 24.1072 76.1218 22.7965 75.1724 20.845 77.0724 19.954 76.3838 26.1412 70.2699 27.3824 71.0268l-3.2957 7.9914L23.0256 78.4209zm1.5808-3.4235 1.2902-2.9629L25.7774 71.937l-2.2309 2.2693 1.0599.7911z" fill="#004ea2"/><path fill-rule="evenodd" clip-rule="evenodd" d="M29.2279 81.4186l-1.1176-.5197L28.7622 74.9328l-2.4438 5.0155L25.2033 79.4355l3.878-7.6798L30.0884 72.2226l-.4681 5.6681L32.1411 73.2104 33.0793 73.6004l-3.8514 7.8182z" fill="#004ea2"/><path fill-rule="evenodd" clip-rule="evenodd" d="M35.0022 83.141 34.2814 82.9057 34.3478 82.2302C34.1796 82.3748 33.9554 82.4673 33.6773 82.5089 33.3985 82.5518 33.1197 82.5263 32.8366 82.4344 32.2405 82.2407 31.8003 81.7732 31.5159 81.0319 31.2303 80.2905 31.2868 79.2704 31.6867 77.9715 32.1244 76.5534 32.6621 75.5655 33.3016 75.0092 33.9399 74.4548 34.911 74.1449 35.7697 74.42 36.6942 74.7149 37.2939 75.8518 37.0282 77.4251L35.9243 77.3344C36.1149 76.6608 36.018 75.6096 35.3599 75.3954 34.8265 75.2222 34.2286 75.3861 33.8486 75.8108 33.468 76.2361 33.098 77.0364 32.7347 78.2149 32.3908 79.3319 32.2952 80.1471 32.4473 80.6624 32.5994 81.1778 32.8614 81.495 33.2284 81.6149 33.5965 81.7347 33.9306 81.6863 34.2317 81.4677 34.5316 81.251 34.7762 80.8388 34.9619 80.2365L35.1159 79.7379 33.7996 79.3089 34.0647 78.4489 36.2304 79.1555 35.0022 83.141z" fill="#004ea2"/><path fill-rule="evenodd" clip-rule="evenodd" d="M46.4407 81.2464C46.4158 82.0207 46.2084 82.6273 45.821 83.0657 45.4329 83.504 44.8344 83.7064 44.0266 83.676 43.2195 83.6456 42.6352 83.3984 42.277 82.9322 41.9187 82.4652 41.7504 81.845 41.7759 81.0707L41.9653 75.2126 42.9972 75.2511 42.8078 81.1092C42.7898 81.6581 42.8972 82.066 43.1282 82.333 43.3592 82.6006 43.669 82.7422 44.0571 82.7577 44.4457 82.7714 44.7636 82.6534 45.0114 82.4044 45.2585 82.1554 45.392 81.7574 45.41 81.208L45.6 75.3499 46.6313 75.3884 46.4407 81.2464z" fill="#004ea2"/><path fill-rule="evenodd" clip-rule="evenodd" d="M52.3104 82.8106 51.3902 82.9497 48.4894 77.3592 48.9327 83.3613 47.8394 83.5178 47.1973 75.1016 48.4559 74.9849 50.8482 78.9064 50.4043 74.6856 51.3176 74.5291 52.3104 82.8106z" fill="#004ea2"/><path fill-rule="evenodd" clip-rule="evenodd" d="M55.4542 81.9291 54.3751 82.2563 52.1318 74.2903 53.2109 73.963 55.4542 81.9291z" fill="#004ea2"/><path fill-rule="evenodd" clip-rule="evenodd" d="M58.3652 71.834l1.3641 8.7949L58.6651 81.1535l-4.6586-7.4649L55.0316 73.257 58.2696 78.3471 57.3718 72.2661 58.3652 71.834z" fill="#004ea2"/><path fill-rule="evenodd" clip-rule="evenodd" d="M67.0173 76.8192 63.0858 78.9445 58.8054 71.5944l3.739-2.0204L63.02 70.3898 60.167 71.9315 61.4945 74.2108 64.1153 72.7945 64.5909 73.6104 61.9689 75.0273l1.5274 2.622 3.046-1.646L67.0173 76.8192z" fill="#004ea2"/><path fill-rule="evenodd" clip-rule="evenodd" d="M71.4962 73.6787 70.6313 74.4176 67.5845 71.8937 66.7966 72.6071 68.8555 75.4073 67.9912 76.3125 62.9484 69.2331 64.5558 68.082C65.0699 67.7132 65.7455 67.45 66.3539 67.5226 67.9242 67.7095 68.5954 68.7675 68.5233 69.9975 68.501 70.3855 68.4786 70.7636 68.3265 71.1486L71.4962 73.6787zM66.0621 68.6917C65.422 68.5173 64.9178 69.0121 64.4571 69.3722L66.1329 71.5851C66.6451 71.2163 66.8836 71.1362 67.271 70.4681 67.4386 69.6647 67.0798 68.9699 66.0621 68.6917z" fill="#004ea2"/><path fill-rule="evenodd" clip-rule="evenodd" d="M74.2164 66.8431C75.9741 67.8992 75.5643 70.8956 73.254 71.2458 72.6325 71.3395 71.9017 71.152 71.5875 70.9533L71.9824 70.0568C72.363 70.1418 72.7486 70.2791 73.1137 70.2101 74.6106 69.9251 74.5448 68.3698 73.6719 67.7253 73.3676 67.5006 72.9324 67.472 72.5723 67.5117 71.5621 67.6247 70.9151 68.3785 69.7913 68.4487 68.5626 68.5263 67.707 67.7769 67.5064 66.581 67.4003 65.9471 67.5518 65.3324 67.8666 64.8388 68.5166 63.8212 69.8962 63.6833 70.9015 64.2763L70.5103 65.2008C69.967 64.9121 69.0022 64.9133 68.6389 65.4814 68.4496 65.7788 68.3838 66.0831 68.4409 66.3929 68.5669 67.0678 69.0282 67.4596 69.6783 67.3814 70.7692 67.2485 71.5068 66.3513 72.5803 66.3861 73.0919 66.4035 73.6986 66.532 74.2164 66.8431z" fill="#004ea2"/><path fill-rule="evenodd" clip-rule="evenodd" d="M77.924 65.7511 77.2907 66.5278 70.0431 61.9835 70.6764 61.2068 77.924 65.7511z" fill="#004ea2"/><path fill-rule="evenodd" clip-rule="evenodd" d="M74.2656 56.5837 73.4634 58.0701 80.3088 62.0953 79.8474 62.9503 73.0027 58.9244 72.2006 60.4109 71.3456 59.9079 73.4107 56.0808 74.2656 56.5837z" fill="#004ea2"/><path fill-rule="evenodd" clip-rule="evenodd" d="M75.5216 50.9291 79.6965 54.6606l2.7878 1.1934L82.1447 56.794 79.5618 55.7944 73.6155 55.6565 73.9011 54.7041 78.0505 54.7712l-2.938-2.7034L75.5216 50.9291z" fill="#004ea2"/><path fill-rule="evenodd" clip-rule="evenodd" d="M18.2984 71.8195C17.5601 72.5546 16.8703 72.9346 16.2308 72.9557 15.5913 72.9774 15.0126 72.7235 14.4917 72.1926 14.0173 71.7102 13.7826 71.1477 13.7882 70.5044 13.7907 70.1784 13.8857 69.8432 14.0714 69.4986L15.0114 70.0729C14.9313 70.2362 14.8891 70.3914 14.8853 70.5398 14.876 70.89 14.9841 71.1818 15.2094 71.4121 15.5267 71.735 15.8595 71.8803 16.2078 71.8511 16.5568 71.8219 16.9808 71.5593 17.4819 71.0613L21.6611 66.9237 22.4409 67.7178 18.2984 71.8195z" fill="#004ea2"/><path fill-rule="evenodd" clip-rule="evenodd" d="M32.5187 70.3704 29.5887 68.5525 29.8545 68.0924 30.9423 68.7685l1.7428-3.0337L31.5961 65.0587 31.8333 64.647C32.2455 64.9022 32.5734 65.0475 32.8192 65.0786 33.0632 65.1096 33.2694 65.0134 33.4358 64.783L34.0604 65.1692l-2.3408 4.0787L32.7832 69.9072 32.5187 70.3704zM41.2559 68.5183C41.3025 68.2855 41.2217 68.075 41.0125 67.8844 40.8008 67.6969 40.4816 67.5721 40.0526 67.5125 39.659 67.4585 39.3255 67.4839 39.0468 67.5888 38.7667 67.6913 38.6035 67.8614 38.555 68.0998 38.5196 68.273 38.555 68.4264 38.6587 68.563 38.7612 68.6996 38.9313 68.8331 39.1672 68.9635 39.2722 69.0175 39.4299 69.0976 39.6459 69.1994 39.8601 69.2988 40.0563 69.3844 40.237 69.449 40.5822 69.3385 40.8262 69.205 40.9728 69.0603 41.1181 68.9101 41.2131 68.7288 41.2559 68.5183zM40.8753 71.1428C40.9194 70.9267 40.8883 70.751 40.7859 70.6064 40.6797 70.4617 40.4562 70.2996 40.1116 70.1177 39.998 70.0581 39.8446 69.9873 39.6528 69.9079 39.4597 69.8278 39.2423 69.7346 39.0008 69.6297 38.6773 69.7179 38.4159 69.8427 38.2197 70.0072 38.0223 70.1717 37.9 70.3766 37.8522 70.6151 37.7882 70.9305 37.8832 71.2055 38.1347 71.4533 38.3861 71.6979 38.7338 71.8544 39.1772 71.9133 39.6304 71.9785 40.011 71.9388 40.319 71.8022 40.6294 71.6631 40.8144 71.4439 40.8753 71.1428zM39.0592 72.4324C38.66 72.3753 38.3036 72.2877 37.9913 72.1654 37.6789 72.0431 37.4231 71.8953 37.2214 71.7165 37.0239 71.5464 36.8861 71.3583 36.8078 71.1484 36.7296 70.941 36.7128 70.7305 36.7551 70.5145 36.8134 70.2332 36.9811 69.9917 37.2623 69.7874 37.5417 69.5831 37.9167 69.4434 38.388 69.364L38.3923 69.3441C38.026 69.1398 37.7665 68.938 37.61 68.7337 37.4567 68.5295 37.4058 68.296 37.4598 68.0322 37.5392 67.6373 37.8348 67.3448 38.3433 67.1486 38.8543 66.9499 39.4609 66.9015 40.1625 66.9984 40.8958 67.1002 41.4564 67.3051 41.8457 67.6174 42.2363 67.9241 42.3921 68.2737 42.3145 68.6568 42.2673 68.8902 42.1158 69.1063 41.8588 69.3044 41.5999 69.503 41.2609 69.6396 40.8374 69.7104L40.8343 69.7334C41.2733 69.9408 41.5943 70.1618 41.7942 70.3977 41.996 70.6337 42.0624 70.9118 41.9972 71.2272 41.9066 71.673 41.5825 72.0114 41.0218 72.2412 40.4618 72.4721 39.8074 72.538 39.0592 72.4324zM49.1946 69.2199C49.1946 68.8623 49.1449 68.5692 49.0474 68.3451 48.9481 68.1209 48.8115 67.9471 48.637 67.8254 48.4837 67.7112 48.326 67.6317 48.167 67.5894 48.0075 67.5497 47.833 67.5267 47.6411 67.5267 47.2065 67.5267 46.8601 67.6317 46.603 67.8391 46.3428 68.0464 46.2149 68.3445 46.2149 68.7393 46.2149 68.9635 46.2559 69.1423 46.3416 69.2876 46.4267 69.4323 46.5639 69.5577 46.7576 69.6601 46.8899 69.7309 47.0432 69.7818 47.2121 69.8079 47.3804 69.8334 47.5635 69.8451 47.7572 69.8451 47.9826 69.8451 48.2291 69.8166 48.4886 69.7651 48.7519 69.711 48.9785 69.6403 49.1735 69.5552 49.1778 69.5179 49.184 69.4726 49.1878 69.413 49.1934 69.3565 49.1946 69.2938 49.1946 69.2199zM45.1389 68.7685C45.1389 68.496 45.2054 68.2488 45.3358 68.0272 45.4699 67.8006 45.6499 67.6068 45.8815 67.4448 46.0988 67.2883 46.3671 67.1697 46.6856 67.0809 47.0022 66.9928 47.3214 66.9506 47.6486 66.9506 48.0118 66.9506 48.3415 66.9903 48.6358 67.0723 48.9313 67.1523 49.1865 67.2709 49.402 67.4243 49.6745 67.618 49.885 67.8707 50.0359 68.183 50.1849 68.4984 50.2613 68.8933 50.2613 69.3733 50.2613 69.8079 50.188 70.2226 50.0402 70.6113 49.8943 71.0037 49.6795 71.3272 49.3927 71.5824 49.089 71.855 48.724 72.0655 48.2974 72.2076 47.8702 72.3523 47.3443 72.4237 46.7179 72.4237 46.5775 72.4237 46.4267 72.4206 46.2677 72.41 46.1088 72.3983 45.9598 72.3784 45.8213 72.3498V71.6737H45.8753C45.9641 71.7084 46.1013 71.742 46.2901 71.7705 46.4763 71.8016 46.6676 71.8159 46.8613 71.8159 47.5542 71.8159 48.0993 71.665 48.4949 71.3614 48.891 71.0546 49.1151 70.62 49.1679 70.055 48.8854 70.1829 48.6166 70.2767 48.3607 70.3363 48.1025 70.3959 47.8243 70.4244 47.5244 70.4244 47.2301 70.4244 46.965 70.4021 46.7235 70.3592 46.4832 70.317 46.2404 70.2345 45.9976 70.1128 45.7133 69.9681 45.5003 69.7862 45.3556 69.567 45.211 69.3447 45.1389 69.0808 45.1389 68.7685zm11.4865-4.5021L56.4323 69.6974 55.5997 70.2233 55.6736 65.0879 52.5008 66.6271 52.2214 66.0167l3.9893-2.0706L56.6254 64.2664z" fill="#004ea2"/><path fill-rule="evenodd" clip-rule="evenodd" d="M60.6148 22.732C60.0287 22.3384 60.4906 22.2881 60.6086 21.6989 60.7098 21.1929 60.4664 20.5577 60.6191 20.2125 61.032 19.2818 62.221 19.8244 62.8345 20.4186 62.9438 20.5242 63.0189 20.7843 63.076 21.0333 63.2176 21.6529 63.3331 22.516 62.5973 22.8419 61.9627 23.1238 61.1245 23.0748 60.6148 22.732z" fill="#004ea2"/><path fill-rule="evenodd" clip-rule="evenodd" d="M53.7084 18.8341C53.691 18.8173 53.673 18.7999 53.6556 18.7832 53.6891 18.7136 53.722 18.6435 53.7525 18.5845 53.9828 18.5882 56.1832 18.1443 56.1988 18.0959 56.8693 17.8953 57.5045 17.6258 57.9099 17.0316 56.4949 16.9404 54.9464 17.38 53.6121 16.959 53.0701 16.5703 52.7895 16.0804 52.4411 15.7303 52.4517 15.6992 52.4573 15.6781 52.4641 15.6576 51.9587 14.9368 52.1251 14.3357 52.9794 14.3873c1.1884.8109 3.5571.6761 4.9715.698500000000001C58.275 15.0734 59.1815 15.1075 59.4969 14.9436 60.473 13.338 60.9734 11.5362 61.7321 9.93053 62.6281 8.9073 63.1118 10.0851 63.5451 10.9035 63.6004 11.0078 63.6817 11.199 63.7407 11.4815 63.7618 11.4883 63.9251 12.3874 63.2552 12.6575 62.6057 13.3355 62.0904 14.17 61.757 15.1187 62.7038 15.3484 63.5588 14.7822 64.6025 15.1802 64.6602 15.7601 64.4659 16.1568 63.8469 16.3747 62.946 16.4344 61.996 16.4319 60.984 16.4797 60.4363 17.2688 59.6658 18.1952 58.7724 18.6578 58.642 18.7254 58.0347 18.9601 57.9031 18.98 57.2183 19.0812 56.562 19.2755 55.8846 19.2017 54.0163 18.998 54.0269 18.9117 53.7084 18.8341z" fill="#004ea2"/><path fill-rule="evenodd" clip-rule="evenodd" d="M31.683 21.8747C30.9125 21.7362 30.0718 21.07 29.5658 20.6497 29.58 20.4491 29.5949 20.2486 29.6235 20.0555c1.302-1.6367 2.6115-3.1833 3.6999-5.0143C33.5891 14.2408 33.9828 13.3747 34.2833 12.5737 34.3007 12.557 34.3423 12.4738 34.3354 12.4533 34.6658 12.0224 34.8179 11.892 35.3071 12.3291 35.4506 12.765 34.7378 13.4374 34.6372 13.9298 34.4621 14.7928 34.0002 16.9665 33.6785 17.7936 33.473 18.3213 32.5945 21.2525 32.0605 21.7275 31.9251 21.7716 31.8034 21.8231 31.683 21.8747z" fill="#004ea2"/><path fill-rule="evenodd" clip-rule="evenodd" d="M39.7597 13.6939C38.7501 13.9118 38.2993 13.3462 37.6027 12.9078 37.517 12.6483 37.6356 12.4484 37.6083 12.2615 37.8436 12.1385 38.5328 11.8194 38.9792 11.6729 39.5194 11.3916 40.727 9.99275 41.3343 10.2995 41.7273 11.4941 40.7264 13.0655 39.7597 13.6939z" fill="#004ea2"/><path fill-rule="evenodd" clip-rule="evenodd" d="M31.5859 13.7838C31.1165 13.5466 30.639 12.0248 30.4813 11.5467 30.5403 10.6067 31.3984 10.3472 32.2676 10.7172 33.0431 11.3251 33.5156 11.5374 33.1449 12.5799 32.6172 13.3523 32.3229 13.4721 31.5859 13.7838z" fill="#004ea2"/><path fill-rule="evenodd" clip-rule="evenodd" d="M38.7914 11.1022C38.5648 10.6589 38.9498 9.48538 38.7014 9.29104 38.4692 9.39038 38.2444 9.54498 37.9948 9.62694 37.3181 9.49283 36.4668 8.93341 36.5587 8.30444 36.8723 7.68355 36.7332 7.85554 37.4187 7.63078 38.0011 7.16263 38.5866 6.70565 39.1832 6.24495 40.2493 5.74389 40.9248 6.22384 41.28 7.30357 41.2669 8.06664 40.9391 8.75024 40.6218 9.43012 40.1121 9.90882 39.6675 10.4111 39.2199 10.9035 39.0684 10.965 38.9299 11.0333 38.7914 11.1022z" fill="#004ea2"/><path fill-rule="evenodd" clip-rule="evenodd" d="M31.8301 9.52709C31.5401 9.38118 31.6103 9.24334 31.6798 9.00119 31.5296 8.54484 31.1539 8.24247 31.0105 7.80598 30.9478 6.95226 30.7143 6.69583 31.2868 6.12772 31.8704 6.22333 33.9423 6.68093 33.7753 7.81716 33.4407 8.58272 32.5329 9.24955 31.8301 9.52709z" fill="#004ea2"/><path fill-rule="evenodd" clip-rule="evenodd" d="M17.7371 40.2878C16.8529 40.9503 15.0921 40.5288 14.8177 39.3342 14.6239 38.4904 13.5529 36.1136 13.0953 34.8308 12.865 34.431 12.5973 34.123 12.7457 33.6692 13.0425 33.5816 13.3927 33.8976 13.6578 34.1417 13.7913 34.1032 13.9981 33.7716 13.9819 33.5468 13.9155 32.6112 13.8807 31.5873 13.7131 30.6622 13.4703 30.4679 13.2282 30.2729 13.0003 30.0742 12.842 30.5486 12.3068 32.0989 11.7486 31.2967 11.869 30.6647 11.9162 29.6203 11.5418 29.0057 11.07 28.5245 10.4062 28.2122 10.1852 27.6807 10.2467 26.93 11.3885 26.7065 12.0739 26.9803 12.6209 27.0045 12.5688 25.9807 13.253 27.6484c.0242000000000004.2744.2974.4359.6054.5793C13.9043 28.1656 13.9509 28.1035 13.9975 28.0414 13.9546 27.3212 13.9093 26.537 13.9416 25.7708 13.2412 25.1145 12.6538 24.57 12.223 23.7629 12.1925 22.9743 13.0705 22.4826 13.8385 22.2168 14.0738 21.7853 14.0626 21.4178 14.0235 20.8739 14.0689 20.6994 14.0689 20.6994 14.2452 20.4218 14.514 20.4312 14.7407 20.5175 15.0474 20.6851 15.6943 21.4612 14.4954 23.9572 15.7229 24.1031 15.9533 23.6809 15.5962 23.2624 15.3932 22.9271 15.4392 22.318 16.3481 21.5183 16.9976 21.2625 17.9755 21.1365 17.9364 21.6878 17.9743 22.5298 18.0245 22.6446 18.0736 22.7583 18.1289 22.8632 19.4042 23.7206 19.4042 23.7206 21.1743 24.8109 21.7244 25.2847 21.784 26.0695 21.8399 26.3066 21.8753 26.4569 22.1317 27.5739 21.5562 27.6707 20.1064 26.768 18.661 25.7435 17.2528 24.9252 17.2373 24.9537 17.231 24.9879 17.2298 25.0121 17.8656 25.5585 18.7448 27.0958 18.8013 27.9737 18.4871 28.5493 17.8718 28.8113 17.2993 28.6735 17.1919 28.5276 17.2261 28.3972 17.1981 28.2202 16.7542 27.505 15.5155 26.8543 14.8841 26.46 14.6662 26.9511 15.2076 28.3543 15.3777 28.9324 15.4143 29.2764 15.451 29.6191 15.4926 29.9538 15.9297 30.4542 16.3779 30.9099 16.8635 31.4116 17.0442 31.6966 17.2342 31.9872 17.4241 32.2777 17.4086 32.3069 17.3981 32.3256 17.3875 32.3448 17.6117 32.7782 18.114 34.0479 17.2714 34.087 17.1851 34.0398 17.1081 33.9976 17.0367 33.9461 16.7474 33.2898 16.2097 32.5869 15.641 32.2138 15.4752 32.8831 15.7366 33.5928 15.4348 34.1429 15.2504 34.48 14.8878 34.6489 14.6301 34.7563 14.357 34.8706 14.1837 34.9296 14.1657 35.0314 14.4141 35.3288 14.6984 35.6101 14.9356 35.9242c.9438 1.2499 1.7453 2.483 2.8226 3.6807C17.8377 39.9439 17.8246 40.0364 17.7371 40.2878z" fill="#004ea2"/><path fill-rule="evenodd" clip-rule="evenodd" d="M11.544 34.868C11.1864 34.8842 10.9914 34.4669 10.7095 34.2757 9.72044 34.0348 8.97848 33.8665 8.61588 32.9104 8.65375 32.8185 8.70032 32.7322 8.74751 32.6459 9.24918 32.4335 10.1936 32.2764 10.8312 32.2261 12.0556 32.4459 11.7023 33.9833 11.544 34.868z" fill="#004ea2"/><path fill-rule="evenodd" clip-rule="evenodd" d="M8.87468 32.0928C8.67289 32.2567 8.63005 32.2207 8.53257 32.217 8.39411 31.9922 8.33637 31.8239 8.10974 31.7376 7.02815 31.7575 5.87702 30.9932 6.03411 29.8837 6.22348 29.6508 6.43831 29.7806 6.85555 29.8837 7.75832 29.6663 9.09385 29.0436 9.20996 30.5033 9.13173 31.0385 8.99078 31.5837 8.87468 32.0928z" fill="#004ea2"/><path fill-rule="evenodd" clip-rule="evenodd" d="M70.6276 29.3797C70.1644 28.5136 71.3745 27.5382 71.9246 27.2054 72.7187 27.3743 72.7224 28.6527 72.1922 29.2624 71.4453 29.7721 71.359 29.8709 70.6276 29.3797z" fill="#004ea2"/><path fill-rule="evenodd" clip-rule="evenodd" d="M69.2484 38.0126C69.2372 37.9748 69.2353 37.9443 69.2266 37.9214 68.3189 37.1328 67.5837 36.2474 67.0858 35.2205 67.1175 35.1174 67.1175 35.1174 67.21 35.01 67.9203 35.1925 68.4884 35.8892 69.2993 35.7545 69.719 35.4384 70.0717 35.1665 70.3492 34.8138 69.4501 34.0321 68.407 34.1824 67.4943 33.7657 66.8846 33.2355 66.3743 31.7062 66.6561 31.0823 67.3869 30.3415 67.2118 30.8264 68.0525 31.5579 69.1589 32.3172 70.6348 32.7022 71.9399 33.2001 72.2764 33.2461 72.2764 33.2461 72.4279 33.305 73.2357 32.8928 73.4853 32.922 74.249 33.4255 74.6215 33.5466 74.6215 33.5466 75.7876 33.8222 75.877 33.7695 75.9658 33.7167 76.0632 33.6714 74.8264 32.7115 73.0463 32.7276 71.5779 32.4507 71.0216 32.1409 70.7615 31.7404 70.5913 31.3033 70.3709 31.14 69.077 30.2472 70.0431 30.3341 70.4982 30.5272 70.9794 30.5396 71.4805 30.7296 72.8619 30.9897 74.2962 31.4548 75.7013 31.8217 75.8304 31.6733 75.8521 31.5479 75.8639 31.4846 76.0527 31.3008 76.18 31.2381 76.3743 31.1468 76.1502 31.0388 76.1148 30.9786 75.9589 31.0754 75.1952 30.7879 74.493 31.0462 74.5501 30.0969 73.9702 30.4471 73.3195 30.4465 72.8247 30.0162 72.5894 29.3046 73.3617 28.4993 73.6399 28.0455 73.6498 27.9679 73.887 27.5941 74.1087 27.1067 74.3266 26.456 74.4123 25.5743 75.0686 25.4359 75.6119 25.5607 75.8254 25.6153 75.6597 26.3554 75.7211 26.7845 75.7801 27.604 75.7025 27.9722 75.5777 28.5645 75.3616 29.4121 74.814 29.892 75.2083 29.9882 75.8478 30.0522 75.9757 29.5555 75.7845 28.9253 76.3942 28.7744 76.822 28.9153 77.0151 29.1264 77.0151 29.1264 77.3019 29.3624 77.395 29.255 77.387 29.2475 77.3944 29.1389 77.169 28.6825 77.3149 28.6639 77.6813 28.4764 77.4267 27.9362 77.6893 27.3681 78.1358 27.2209 79.5818 28.0728 79.5818 28.0728 80.2965 28.4329 81.103 28.3385 82.7092 27.4898 83.1836 28.4099 83.147 28.8849 82.87 29.4698 82.4019 29.8585 82.13 29.9547 81.853 29.9901 81.6171 30.1615 81.691 30.226 81.7587 30.2987 81.8251 30.3713 82.5466 30.6079 83.0538 30.5408 82.6279 31.5473 82.8477 32.2595 83.0799 32.36 82.2318 32.8686 81.2185 33.2181 80.1288 33.5888 79.0739 33.903 79.0367 33.9284 79 33.9545 78.9715 33.9874 79.0404 34.0911 79.1099 34.1948 79.172 34.3065 78.9181 34.6654 78.5499 35.0553 78.173 35.4223 77.4553 35.5651 77.0889 35.2037 76.5655 34.807 75.6851 34.5195 74.9146 34.2401 74.0317 34.0228 73.923 34.1314 73.7976 34.2252 73.7107 34.4245 74.0006 34.6915 74.2918 34.9728 74.5824 35.2546 74.696 35.7737 74.0994 36.3269 73.5673 36.4722 73.1991 36.1959 72.9638 36.0494 72.5844 35.937 72.4 36.0655 72.215 36.1947 72.0237 36.3325 71.4451 36.9689 70.3001 38.7682 69.2484 38.0126zm9.2854-5.7997C78.5232 32.1744 78.5139 32.152 78.5046 32.1297 79.0081 31.6839 79.1584 31.5107 78.6374 31.1443 78.4928 31.1779 78.2183 31.2437 78.2128 31.0655 78.2065 30.8736 79.1304 30.6607 79.2714 30.5812 79.5352 30.8103 79.9221 31.248 79.9537 31.6957 79.588 32.1154 79.1062 32.2036 78.5338 32.2129z" fill="#004ea2"/></svg>